<?xml version="1.0" encoding="UTF-8" standalone="no"?>
<svg
   viewBox="0 0 512 512"
   version="1.1"
   id="svg8"
   sodipodi:docname="arrow-up.svg"
   inkscape:version="1.1.1 (3bf5ae0d25, 2021-09-20)"
   xmlns:inkscape="http://www.inkscape.org/namespaces/inkscape"
   xmlns:sodipodi="http://sodipodi.sourceforge.net/DTD/sodipodi-0.dtd"
   xmlns="http://www.w3.org/2000/svg"
   xmlns:svg="http://www.w3.org/2000/svg"
   xmlns:rdf="http://www.w3.org/1999/02/22-rdf-syntax-ns#"
   xmlns:cc="http://creativecommons.org/ns#"
   xmlns:dc="http://purl.org/dc/elements/1.1/">
  <defs
     id="defs12">
    <filter
       inkscape:menu="Shadows and Glows"
       inkscape:menu-tooltip="Cut out, add inner shadow and colorize some parts of an image"
       style="color-interpolation-filters:sRGB;"
       inkscape:label="Outline"
       id="filter417"
       x="-0.19115442"
       y="-0.14797409"
       width="1.3911828"
       height="1.3028175">
      <feColorMatrix
         values="0 0 0 0 0 0 0 0 0 0 0 0 0 0 0 0.21 0.72 0.07 0 0 "
         result="result1"
         id="feColorMatrix389" />
      <feColorMatrix
         values="1 0 0 0 0 0 1 0 0 0 0 0 1 0 0 0 0 0 2 0 "
         result="result9"
         id="feColorMatrix391" />
      <feComposite
         in2="result9"
         in="SourceGraphic"
         operator="in"
         result="result4"
         id="feComposite393" />
      <feFlood
         result="result2"
         flood-color="rgb(0,0,0)"
         id="feFlood395" />
      <feComposite
         in2="result9"
         operator="in"
         result="result10"
         id="feComposite397" />
      <feComposite
         in2="result4"
         operator="atop"
         id="feComposite399" />
      <feGaussianBlur
         stdDeviation="3"
         result="result8"
         id="feGaussianBlur401" />
      <feOffset
         dx="3"
         dy="3"
         result="result3"
         in="result8"
         id="feOffset403" />
      <feFlood
         flood-opacity="1"
         flood-color="rgb(219,173,62)"
         result="result5"
         id="feFlood405" />
      <feMerge
         result="result6"
         id="feMerge413">
        <feMergeNode
           in="result5"
           id="feMergeNode407" />
        <feMergeNode
           in="result3"
           id="feMergeNode409" />
        <feMergeNode
           in="result4"
           id="feMergeNode411" />
      </feMerge>
      <feComposite
         in2="SourceGraphic"
         operator="in"
         result="fbSourceGraphic"
         id="feComposite415" />
      <feColorMatrix
         result="fbSourceGraphicAlpha"
         in="fbSourceGraphic"
         values="0 0 0 -1 0 0 0 0 -1 0 0 0 0 -1 0 0 0 0 1 0"
         id="feColorMatrix2339" />
      <feGaussianBlur
         id="feGaussianBlur2341"
         in="fbSourceGraphicAlpha"
         stdDeviation="20"
         result="blur1" />
      <feComposite
         in2="blur1"
         id="feComposite2343"
         in="fbSourceGraphic"
         operator="out"
         result="composite1" />
      <feColorMatrix
         id="feColorMatrix2345"
         values="1 0 0 0 0 0 1 0 0 0 0 0 1 0 0 0 0 0 100 -3.73832 "
         result="colormatrix1" />
      <feGaussianBlur
         id="feGaussianBlur2347"
         stdDeviation="2.92647"
         result="blur2" />
      <feComposite
         in2="blur2"
         id="feComposite2349"
         in="blur2"
         operator="over"
         result="composite2" />
      <feColorMatrix
         id="feColorMatrix2351"
         values="1 0 0 0 0 0 1 0 0 0 0 0 1 0 0 0 0 0 57.7477 -5 "
         result="colormatrix2" />
      <feGaussianBlur
         id="feGaussianBlur2353"
         stdDeviation="1"
         result="blur3" />
      <feColorMatrix
         id="feColorMatrix2355"
         values="1 0 0 0 0 0 1 0 0 0 0 0 1 0 0 0 0 0 5 -1 "
         result="colormatrix3" />
      <feFlood
         id="feFlood2357"
         flood-opacity="1"
         flood-color="rgb(0,0,0)"
         result="flood" />
      <feComposite
         in2="colormatrix3"
         id="feComposite2359"
         in="flood"
         k2="1"
         operator="in"
         result="composite3" />
      <feComposite
         in2="colormatrix3"
         id="feComposite2361"
         in="fbSourceGraphic"
         operator="out"
         result="composite4" />
      <feComposite
         in2="composite3"
         id="feComposite2363"
         in="composite4"
         k2="1"
         k3="1"
         operator="arithmetic"
         result="composite5" />
    </filter>
  </defs>
  <sodipodi:namedview
     id="namedview10"
     pagecolor="#505050"
     bordercolor="#eeeeee"
     borderopacity="1"
     inkscape:pageshadow="0"
     inkscape:pageopacity="0"
     inkscape:pagecheckerboard="0"
     showgrid="false"
     inkscape:zoom="1.1310946"
     inkscape:cx="228.09763"
     inkscape:cy="201.57465"
     inkscape:window-width="1920"
     inkscape:window-height="1012"
     inkscape:window-x="-8"
     inkscape:window-y="-8"
     inkscape:window-maximized="1"
     inkscape:current-layer="svg8"
     inkscape:lockguides="false"
     showguides="true"
     inkscape:guide-bbox="true" />
  <title
     id="title2">ionicons-v5-a</title>
  <path
     style="fill:#ffffff;stroke-width:0.039072"
     d=""
     id="path3466" />
  <path
     style="fill:#ffffff;stroke-width:0.039072"
     d=""
     id="path3544" />
  <path
     style="fill:#ffffff;stroke-width:0.039072"
     d=""
     id="path3583" />
  <g
     id="g118">
    <path
       style="fill:#ffffff;stroke-width:2.99069;filter:url(#filter417)"
       d="m 275.32911,470.38248 c 4.40898,-1.72167 6.72608,-6.84548 8.97217,-19.83963 l 3.02806,-17.51849 17.14547,-7.30649 17.14551,-7.30653 14.00019,10.9074 c 7.70004,5.99907 15.18274,10.90741 16.62811,10.90741 3.44752,0 31.95902,-26.71187 35.42593,-33.18988 2.00462,-3.7456 0.0461,-8.35587 -7.67567,-18.06954 -5.70171,-7.17254 -10.36671,-15.05968 -10.36663,-17.52702 1.3e-4,-2.46734 3.20123,-11.3608 7.11367,-19.76323 l 7.11347,-15.27715 18.00349,-2.03686 c 12.06617,-1.36513 18.58729,-3.55826 19.77373,-6.65011 3.40864,-8.88282 1.90696,-45.5526 -1.96813,-48.06061 -2.05608,-1.33075 -10.93648,-3.76537 -19.734,-5.41026 -15.89851,-2.97256 -16.03777,-3.09452 -22.92908,-20.08333 l -6.9334,-17.09266 10.21852,-13.38276 c 5.62013,-7.36053 10.21847,-15.18793 10.21847,-17.39421 0,-4.28467 -32.88756,-38.21739 -37.04029,-38.21739 -1.36051,0 -7.81096,4.22725 -14.33437,9.39389 -6.52342,5.16662 -16.13779,10.35337 -21.36537,11.52608 l -9.50463,2.13221 8.03991,2.21001 c 6.53854,1.7973 10.6681,0.20337 22.11276,-8.53538 7.74007,-5.90994 14.8887,-10.7284 15.88579,-10.70765 2.67116,0.0556 30.24561,32.01556 30.10327,34.89096 -0.0666,1.35036 -4.10436,7.11476 -8.9722,12.80977 -10.55224,12.34531 -10.76417,15.5151 -2.4845,37.15131 6.69842,17.50397 7.59585,18.13091 30.39236,21.23075 l 14.32807,1.94833 -0.86982,22.97647 -0.8699,22.97647 -17.42355,1.87185 c -9.58302,1.02952 -18.44118,3.04826 -19.68486,4.48607 -3.20797,3.70876 -15.22907,34.08353 -15.22907,38.48072 0,2.01652 4.61621,9.49994 10.25832,16.62984 l 10.25841,12.96346 -5.98084,8.39927 c -3.28947,4.6196 -10.53312,11.87146 -16.09699,16.11525 l -10.11614,7.71596 -14.03115,-10.71352 c -7.7171,-5.89245 -15.09462,-10.71355 -16.39454,-10.71355 -1.29999,0 -10.48678,3.52295 -20.41512,7.82877 -18.96677,8.22563 -19.55892,9.05944 -22.66752,31.92037 l -1.94828,14.32806 -22.97618,-0.86985 -22.97622,-0.86985 -2.99094,-18.57999 c -1.64513,-10.21902 -4.33684,-19.75011 -5.98173,-21.1802 -1.64495,-1.43008 -10.25818,-5.52724 -19.14052,-9.10475 l -16.14982,-6.5046 -15.83205,11.95332 -15.83206,11.95331 -15.12188,-14.7292 c -8.31705,-8.10104 -15.12192,-16.24311 -15.12192,-18.09349 0,-1.85036 4.64711,-9.45043 10.3269,-16.88906 l 10.32694,-13.52475 -5.96935,-15.14432 c -9.80431,-24.87371 -10.59412,-25.7203 -25.90745,-27.77031 -22.389747,-2.9973 -21.674887,-2.13133 -21.674887,-26.25647 v -21.99928 l 18.691957,-2.76797 18.69195,-2.76796 8.05041,-16.44893 c 4.42769,-9.04691 8.1287,-19.00196 8.22447,-22.12235 0.0957,-3.12036 -4.7153,-11.64025 -10.69124,-18.93305 l -10.86527,-13.25965 14.49125,-14.71247 c 7.97019,-8.09186 15.98437,-14.71248 17.80932,-14.71248 1.82493,0 8.6046,4.00003 15.06598,8.88894 12.21871,9.24513 23.31479,11.54452 26.99271,5.59353 1.46364,-2.36829 0.11715,-2.933 -4.26236,-1.78771 -4.41558,1.15469 -10.53661,-1.48293 -19.7279,-8.50102 -7.32932,-5.59633 -14.84239,-10.17516 -16.6957,-10.17516 -5.16557,0 -22.61764,14.19574 -31.06073,25.26518 l -7.55785,9.90889 10.3472,14.55357 c 5.69097,8.00447 10.34723,16.06071 10.34723,17.90272 0,1.84201 -2.81111,10.11337 -6.24686,18.38078 -6.51025,15.66539 -11.71682,18.66385 -32.40812,18.66385 -4.400097,0 -9.615147,1.61499 -11.589017,3.58885 -4.34957,4.34958 -4.92854,49.06304 -0.66938,51.69535 1.60568,0.99238 9.6704,2.60386 17.921567,3.58111 17.23098,2.04074 18.43141,3.10974 26.51105,23.60792 l 5.97834,15.1672 -10.21629,12.91032 c -5.61898,7.10067 -10.2163,15.20769 -10.2163,18.01561 0,7.60175 35.17163,40.16793 39.71355,36.77164 2.0085,-1.50188 9.2667,-7.04764 16.12931,-12.32395 l 12.47754,-9.59326 16.60836,6.77945 c 16.11748,6.57903 16.6596,7.17768 18.3406,20.25404 3.18972,24.81207 3.80259,26.06644 13.70359,28.04666 12.37494,2.47496 32.56766,2.03855 40.00217,-0.86459 z m 4.39106,-100.66952 c 30.36454,-13.17209 46.5185,-39.09366 44.46453,-71.35059 -0.71331,-11.20171 -3.3512,-22.04156 -6.55307,-26.9282 -7.18138,-10.96025 -9.01952,-8.14659 -3.42512,5.24278 6.37216,15.2507 5.80698,41.66729 -1.18221,55.25495 -25.06222,48.7237 -92.12337,48.7237 -117.18558,0 -6.98919,-13.58766 -7.55443,-40.00425 -1.18221,-55.25495 5.5783,-13.35082 3.76289,-16.21323 -3.37431,-5.32046 -12.6096,19.24468 -7.56286,58.54288 10.23439,79.6937 16.9756,20.17437 54.22641,29.06403 78.20358,18.66277 z m 1.02168,-48.0109 c 1.15577,-1.15575 2.10142,-49.58954 2.10142,-107.63061 V 108.54228 l 17.71195,-0.89038 17.71188,-0.8904 -26.81638,-31.402513 C 276.70169,58.087617 262.19524,41.495245 259.21412,38.487064 253.97134,33.19658 252.75911,34.22401 222.1621,69.889577 l -31.63179,36.871923 17.70709,0.88941 17.70704,0.88939 0.78536,106.7763 0.7853,106.77632 25.5627,0.85528 c 14.05949,0.47039 26.5083,-0.0903 27.66405,-1.24614 z M 232.0011,211.43648 V 105.26614 h -14.95355 c -8.22442,0 -14.95353,-0.83477 -14.95353,-1.85508 0,-2.09933 50.53483,-60.949933 52.33749,-60.949933 1.80267,0 52.33748,58.850603 52.33748,60.949933 0,1.02031 -12.44881,2.09022 -27.66406,2.37759 -15.21528,0.2874 -21.94439,1.03766 -14.95366,1.66733 l 12.71055,1.1448 V 213.10381 317.60685 H 254.43151 232.0011 Z"
       id="path26" />
    <g
       id="g90"
       transform="matrix(0.98695056,0,0,0.98695056,-7.50943,3.5224102)">
      <path
         style="fill:#ffffff;stroke-width:0.884099"
         d="m 233.13898,468.5518 c -10.34455,-1.55602 -15.97112,-5.33701 -18.46632,-12.40919 -0.71587,-2.02899 -1.93901,-8.1941 -2.71807,-13.70024 -1.74965,-12.36573 -3.26032,-16.70048 -6.4838,-18.60463 -2.92198,-1.72606 -21.79091,-9.53057 -23.04201,-9.53057 -0.4758,0 -6.60241,4.31711 -13.61469,9.59359 -7.01227,5.27647 -13.82306,9.863 -15.13507,10.1923 -6.2564,1.57025 -14.66163,-3.79549 -30.24782,-19.30967 -12.49267,-12.43495 -14.89905,-16.00377 -14.8506,-22.02437 0.0474,-5.88394 2.23977,-10.32118 10.4872,-21.2251 3.63399,-4.80449 6.83382,-9.44929 7.11073,-10.32178 1.12505,-3.5447 -9.48002,-26.99903 -13.3562,-29.53881 -1.39356,-0.91309 -7.64482,-2.47026 -14.86634,-3.70317 -15.032377,-2.56641 -14.916011,-2.5327 -18.156838,-5.25968 -3.977266,-3.34664 -4.738863,-8.87949 -4.2383,-30.79037 0.234045,-10.24473 0.866161,-19.98929 1.404702,-21.65457 1.018911,-3.1507 4.648607,-7.5104 7.570828,-9.09347 0.93186,-0.50483 6.816093,-1.45367 13.076078,-2.10855 14.37049,-1.50335 18.19183,-3.07009 21.57708,-8.84659 3.35986,-5.73316 8.23405,-18.73062 8.27024,-22.05332 0.0318,-2.91915 -4.19444,-10.27681 -12.62107,-21.9727 -4.40758,-6.11756 -5.03159,-7.49674 -5.03159,-11.12069 0,-5.56489 3.21624,-10.31793 15.01723,-22.19286 12.23479,-12.31145 19.09899,-16.96615 25.72659,-17.44555 5.85829,-0.42375 7.86709,0.44834 18.22599,7.91248 9.13229,6.58031 15.5241,9.584 20.41829,9.59513 5.18113,0.0118 8.59527,3.24497 7.77306,7.36106 -0.95245,4.76809 -4.07742,7.06 -10.23329,7.50528 -7.03023,0.50852 -14.13181,-2.0232 -22.99781,-8.19876 -10.61531,-7.39402 -11.81488,-7.87555 -15.25071,-6.12193 -3.93155,2.00664 -21.88146,19.77315 -21.88146,21.6579 0,0.83624 2.78853,5.03653 6.19674,9.33398 11.48906,14.48667 13.44401,21.05519 9.63565,32.37517 -2.59634,7.71736 -11.17768,26.1408 -13.80787,29.64435 -2.89942,3.8622 -4.46962,4.38156 -20.56735,6.80289 -17.693547,2.66136 -16.821145,1.67761 -16.821145,18.96812 0,14.13654 0.752133,17.8533 3.903385,19.28911 1.12595,0.51301 6.37759,1.60075 11.67031,2.41718 18.9699,2.92622 21.33549,5.23916 31.65288,30.94825 6.98989,17.41757 6.93174,18.30433 -1.99284,30.38761 -10.57341,14.31568 -11.25564,15.62881 -9.76032,18.78621 1.82006,3.84311 21.11818,22.86363 23.19731,22.86363 0.95532,0 7.05519,-3.99298 13.55525,-8.8733 12.29481,-9.23107 14.67712,-10.57688 18.72278,-10.57688 2.75287,0 26.6671,9.41869 32.24446,12.69957 2.02127,1.18902 4.53753,3.09486 5.59168,4.23521 2.70236,2.92333 5.35642,11.46014 7.46499,24.01122 0.99549,5.9256 2.37908,11.36028 3.07465,12.07708 1.50533,1.55129 10.77349,2.523 24.91587,2.61227 11.61573,0.0733 10.92473,0.67848 12.54693,-10.98834 3.3002,-23.735 6.10472,-26.88803 33.71427,-37.90386 6.10161,-2.43446 11.6502,-4.0875 13.70354,-4.08256 4.15084,0.01 9.76134,3.06654 20.07902,10.93891 10.69789,8.16248 10.24653,8.01703 15.17666,4.89044 8.34453,-5.29194 19.91456,-17.92747 19.91456,-21.74851 0,-0.93254 -2.99338,-5.65338 -6.65195,-10.49074 -8.33212,-11.01674 -10.14594,-14.69443 -10.14594,-20.57191 0,-7.22723 10.18722,-33.55058 15.34203,-39.64313 3.03299,-3.58476 7.99415,-5.23941 20.79887,-6.93686 13.35917,-1.77095 14.05267,-1.94465 15.01874,-3.76174 0.44936,-0.8452 1.10637,-8.3508 1.46002,-16.67909 0.79434,-18.70599 1.19153,-18.02705 -11.5195,-19.69006 -20.75509,-2.71541 -25.21509,-6.05483 -32.27204,-24.16365 -2.44862,-6.2834 -4.89987,-14.30494 -5.44722,-17.82566 -1.38256,-8.89295 0.31438,-14.0565 7.63853,-23.24295 8.25023,-10.348 8.11901,-9.8312 4.04521,-15.93177 -3.7917,-5.6781 -16.9122,-20.10401 -19.58656,-21.53528 -2.08274,-1.11465 -3.1806,-0.54502 -13.05151,6.77189 -10.77625,7.98799 -13.67587,9.19618 -22.07066,9.19618 -8.49075,0 -12.78034,-2.20432 -13.23082,-6.799 -0.36589,-3.73201 2.03051,-5.80426 8.90682,-7.70203 6.74249,-1.86084 14.53697,-6.04988 22.99194,-12.35671 8.94074,-6.66918 11.66141,-7.90549 16.25714,-7.38749 4.62952,0.52182 8.75294,3.64155 20.63864,15.61499 10.62616,10.70459 18.40268,20.30275 19.47291,24.03444 1.5763,5.49622 -0.85507,10.90649 -10.78322,23.99472 -7.6824,10.12768 -7.58016,9.64592 -4.00945,18.89165 4.75373,12.309 8.10637,18.40344 10.79883,19.63021 1.30704,0.59553 7.20967,2.09843 13.11697,3.33979 23.36024,4.90891 24.88917,7.44817 24.30429,40.36499 -0.28317,15.93667 -0.43076,17.21755 -2.33724,20.28362 -3.20982,5.16215 -8.98176,7.43801 -23.77652,9.37497 -7.15729,0.93705 -13.19017,2.17436 -14.0398,2.8795 -2.82203,2.34208 -11.86851,23.74078 -11.86851,28.07399 0,2.59932 2.49926,6.95458 10.99545,19.16089 4.66095,6.69631 5.29054,8.11812 5.62162,12.69518 0.25856,3.57461 -0.0527,5.97714 -1.0155,7.83906 -3.62801,7.01579 -30.20713,31.8103 -36.23106,33.79838 -5.59029,1.84496 -9.65914,-0.17681 -26.52183,-13.17841 -3.80864,-2.93657 -7.65792,-5.33922 -8.55396,-5.33922 -2.33221,0 -24.86661,9.69227 -26.85715,11.55153 -1.16631,1.08938 -2.15667,4.42969 -3.29573,11.11584 -0.8956,5.25716 -2.31888,11.75646 -3.16284,14.4429 -1.85393,5.90131 -6.83642,11.62744 -11.51165,13.22978 -3.32522,1.13966 -31.37309,2.09037 -36.94479,1.25228 z"
         id="path2636" />
      <path
         style="fill:#ffffff;stroke-width:0.884099"
         d="m 233.50111,319.10683 c -11.06196,-0.33103 -11.14715,-0.3498 -13.70354,-3.01764 l -2.57238,-2.68453 -0.72115,-102.71895 c -0.6636,-94.52248 -0.83997,-102.84004 -2.21025,-104.23643 -1.18844,-1.21109 -4.24159,-1.70176 -15.12185,-2.43021 -10.425,-0.69796 -14.00813,-1.25245 -15.22814,-2.35654 -2.20903,-1.99914 -2.72507,-4.10471 -1.67981,-6.85397 1.1792,-3.10153 52.79101,-63.116563 57.82998,-67.245618 7.27772,-5.963546 12.5062,-6.008512 18.38412,-0.158108 7.10826,7.074996 56.4856,65.094806 57.36344,67.403726 1.04527,2.74926 0.52923,4.85483 -1.6798,6.85397 -1.22254,1.10637 -4.78159,1.65263 -15.22814,2.33726 -11.78484,0.77235 -13.82824,1.12742 -15.07493,2.61951 -1.30933,1.56706 -1.48072,10.95216 -1.8606,101.88204 -0.45357,108.56732 -0.28757,105.13194 -5.25839,108.82021 -2.12165,1.57423 -3.94424,1.77926 -17.23993,1.93936 -8.17711,0.0985 -19.87649,0.0292 -25.99863,-0.15408 z m 30.63339,-16.56681 c 1.6782,-1.227 1.72138,-3.39687 1.95244,-98.11977 0.23447,-96.12116 0.22258,-96.87872 -1.54718,-98.64848 -0.9809,-0.9809 -2.72442,-1.78346 -3.87448,-1.78346 -2.89229,0 -6.74997,-3.24262 -6.74997,-5.67379 0,-1.10498 0.81814,-2.74946 1.81809,-3.6544 1.53452,-1.38872 4.05113,-1.75572 16.13481,-2.35293 7.8742,-0.38917 15.25141,-1.11236 16.39382,-1.6071 2.04295,-0.884745 2.0512,-0.939141 0.50194,-3.309721 -2.68283,-4.105082 -24.09826,-29.077431 -34.12464,-39.792442 -3.61211,-3.860206 -5.57251,-5.34354 -6.42642,-4.862547 -2.25958,1.272789 -35.36216,39.30549 -38.86991,44.658996 -2.06729,3.155094 -0.9701,3.638304 9.20834,4.055404 7.56735,0.31011 8.63967,0.57034 10.83021,2.62832 l 2.43128,2.28413 0.0881,100.84294 c 0.0485,55.46362 0.36137,101.82305 0.69533,103.02095 0.82645,2.96446 2.89142,3.3777 17.39263,3.48051 9.44894,0.067 12.84096,-0.21275 14.14559,-1.16661 z"
         id="path2675" />
      <path
         style="fill:#ffffff;stroke-width:0.884099"
         d="m 231.37078,368.3393 c -24.60816,-5.61501 -42.18572,-20.36757 -51.09609,-42.88411 -4.4824,-11.32705 -5.92832,-19.50139 -5.92832,-33.51498 0,-14.0678 0.90027,-19.10845 4.92954,-27.60086 5.08878,-10.7255 12.05091,-14.79896 16.22468,-9.49287 2.38051,3.02633 2.31043,5.18749 -0.41953,12.93784 -6.8568,19.46642 -6.42354,39.01561 1.20956,54.57652 4.32774,8.82259 15.54839,20.22033 24.60023,24.98851 34.80262,18.33276 78.08217,-1.41203 85.67956,-39.08832 2.11573,-10.49218 1.39146,-24.35051 -1.8044,-34.52565 -4.35517,-13.86623 -4.59104,-15.57429 -2.53302,-18.34299 2.67147,-3.59397 6.4133,-3.67065 10.35233,-0.21214 6.9584,6.10955 11.1423,20.94887 11.16222,39.58976 0.0247,23.138 -5.87739,38.0075 -21.14725,53.27737 -10.89956,10.89955 -23.52991,18.24569 -36.30759,21.11745 -6.61356,1.48639 -26.89047,1.00705 -34.92192,-0.82553 z"
         id="path2714" />
      <path
         style="fill:#ffffff;stroke-width:0.44205"
         d="m 243.68944,303.38897 -4.07939,-0.17583 -0.12885,-97.12395 c -0.1117,-84.20357 -0.21542,-97.35871 -0.77965,-98.88865 -0.82091,-2.22596 -3.59508,-5.03355 -5.31314,-5.37716 -1.28796,-0.25759 -1.31234,-0.31406 -1.31234,-3.039373 0,-2.771386 -0.004,-2.780399 -2.09986,-4.53501 -2.09557,-1.754512 -4.55183,-2.737588 -6.85164,-2.742252 -1.90743,-0.0039 -3.15839,1.683663 10.96088,-14.786082 11.51134,-13.427676 19.61155,-22.479272 20.75326,-23.190779 0.54824,-0.34166 1.29503,-0.506761 1.65952,-0.36689 0.81568,0.313004 7.53558,7.648919 16.90949,18.459572 13.25082,15.281792 15.68646,18.302921 15.04517,18.661802 -1.0216,0.571721 -6.69438,1.178247 -17.52812,1.874087 -11.25075,0.722623 -12.78685,0.916508 -14.639,1.847713 -1.34742,0.677446 -2.55013,2.668454 -2.54761,4.217417 0.004,2.564925 3.29981,5.532825 6.64151,5.981045 1.93737,0.25986 2.02357,0.39094 1.07865,1.64024 -0.86336,1.14146 -0.82303,3.57349 0.0847,5.11024 0.40357,0.68319 1.46702,1.65428 2.36321,2.15797 l 1.62945,0.9158 0.313,9.18249 c 0.3965,11.63179 -0.13126,156.91486 -0.61305,168.76243 -0.19773,4.86255 -0.49482,9.17521 -0.66019,9.58369 -0.16537,0.40849 -0.87921,0.94438 -1.58631,1.19087 -1.4693,0.51221 -13.22549,0.90243 -19.29974,0.64061 z"
         id="path3310" />
      <path
         style="fill:#ffffff;stroke-width:0.44205"
         d="m 236.35185,302.81721 c -0.93054,-0.17996 -2.12408,-0.75915 -2.6523,-1.28711 -0.95634,-0.95586 -0.96159,-1.06588 -1.24102,-26.03444 -0.15435,-13.79099 -0.30354,-58.45715 -0.33154,-99.25815 l -0.0509,-74.18362 0.99461,0.29462 c 2.02203,0.59896 4.0745,2.66904 4.8432,4.88476 0.70181,2.02291 0.75558,8.91057 0.77359,99.09341 0.0106,53.30566 -0.12985,96.89651 -0.31219,96.86855 -0.18235,-0.0279 -1.09289,-0.19807 -2.02343,-0.37802 z"
         id="path3349" />
      <path
         style="fill:#ffffff;stroke-width:0.44205"
         d="m 263.71243,112.30433 c -2.42418,-1.59803 -3.16151,-4.36537 -1.65787,-6.22229 0.66621,-0.82273 0.95892,-0.90858 1.71619,-0.5033 0.50214,0.26874 1.03056,0.79503 1.17427,1.16953 0.48669,1.26829 0.85299,6.41647 0.45633,6.41353 -0.21592,-0.002 -0.97593,-0.38746 -1.68892,-0.85747 z"
         id="path3388" />
      <path
         style="fill:#ffffff;stroke-width:0.039072"
         d="m 288.85714,88.410257 c -0.52251,-0.628572 -1.02987,-1.239561 -1.12746,-1.357754 -0.0976,-0.118193 -0.41516,-0.487056 -0.7057,-0.819692 -0.29054,-0.33264 -0.76562,-0.888514 -1.05573,-1.235274 -0.70219,-0.839315 -2.27555,-2.695666 -3.12631,-3.688624 -0.37745,-0.440537 -0.92215,-1.082295 -1.21044,-1.426129 -0.2883,-0.343834 -0.80737,-0.950427 -1.15351,-1.347985 -0.58064,-0.66691 -1.99216,-2.308068 -3.76373,-4.376069 -2.8482,-3.324783 -10.77643,-12.387892 -12.93892,-14.791057 -0.50501,-0.56121 -1.10281,-1.228499 -1.32845,-1.482863 -1.05867,-1.193426 -1.50903,-1.693767 -2.62154,-2.912451 -1.25854,-1.378636 -1.71221,-1.825055 -2.23359,-2.19787 -0.64159,-0.458771 -1.16352,-0.636299 -1.76758,-0.601226 -0.92467,0.05369 -1.71287,0.587209 -3.12807,2.117335 -0.73046,0.789781 -1.63215,1.773424 -1.97083,2.149971 -0.9128,1.014831 -1.1338,1.261651 -1.32845,1.483702 -0.1182,0.134825 -0.50501,0.567092 -0.85959,0.960592 -0.88087,0.977559 -1.59654,1.779655 -2.24664,2.517942 -0.30086,0.341665 -0.68444,0.77578 -0.8524,0.9647 -0.53955,0.606858 -2.26579,2.581952 -2.50304,2.863857 -0.12631,0.150102 -0.46233,0.536648 -0.74669,0.858992 -0.28436,0.322345 -0.78607,0.893773 -1.11492,1.269842 -0.32884,0.376068 -0.95987,1.096489 -1.40227,1.600936 -0.4424,0.504447 -1.03211,1.18137 -1.31046,1.504274 -0.27834,0.322903 -0.64757,0.745966 -0.82051,0.940138 -0.65327,0.733507 -1.86662,2.139595 -2.56122,2.968083 -0.39638,0.472771 -0.96512,1.140903 -1.26389,1.484737 -0.29876,0.343834 -0.93121,1.073504 -1.40545,1.62149 -1.25407,1.449097 -1.90298,2.194398 -2.00633,2.304362 l -0.091,0.09679 0.001,-8.712177 10e-4,-8.712176 0.94181,-1.074481 c 8.09301,-9.233089 12.90816,-14.559127 15.58086,-17.234006 1.54887,-1.550124 1.612,-1.590957 2.19292,-1.4185 0.78537,0.233151 1.95491,1.130518 3.68463,2.827149 5.92412,5.810784 30.54382,34.226998 35.5464,41.027873 0.53816,0.731616 1.23287,1.806812 1.46563,2.268323 0.14566,0.288825 0.26303,0.700101 0.19978,0.700101 -0.011,0 -0.44743,-0.514286 -0.96994,-1.142857 z"
         id="path3427" />
      <path
         style="fill:#ffffff;stroke-width:0.039072"
         d="m 288.47863,90.292353 c 0.12345,-0.0719 0.0887,-0.344124 -0.0874,-0.684368 -0.75743,-1.463686 -4.75221,-6.252909 -16.19451,-19.415067 -8.06823,-9.280945 -14.34618,-16.135129 -15.53018,-16.955642 -0.28398,-0.196795 -0.79751,-0.179306 -1.36987,0.04665 -0.55723,0.219988 -0.96285,0.571803 -2.39417,2.076588 -3.72683,3.918124 -9.6887,10.686816 -20.18157,22.912739 l -2.50851,2.922828 v -0.203306 c 0,-0.196585 0.01,-0.215065 0.30057,-0.55897 0.16531,-0.195615 0.3807,-0.444036 0.47863,-0.552046 0.0979,-0.10801 0.37148,-0.42436 0.60786,-0.703 0.23639,-0.27864 0.86935,-1.010218 1.4066,-1.62573 1.4781,-1.693455 1.78461,-2.050161 2.56433,-2.984357 0.62781,-0.752176 1.27763,-1.503127 3.02363,-3.494168 0.23675,-0.269978 0.5884,-0.675329 0.78144,-0.900781 0.19304,-0.225452 0.6853,-0.788089 1.0939,-1.250305 0.40861,-0.462216 1.03278,-1.172935 1.38706,-1.579376 0.35428,-0.406441 0.83755,-0.958384 1.07393,-1.226541 0.23639,-0.268157 0.53156,-0.610532 0.65595,-0.760833 0.12438,-0.150301 0.73977,-0.854916 1.36752,-1.565811 0.62775,-0.710895 1.47465,-1.671143 1.882,-2.133884 0.40735,-0.462741 0.90647,-1.025962 1.10916,-1.251603 0.20269,-0.225641 0.42378,-0.471795 0.49131,-0.547009 0.0675,-0.07521 0.32445,-0.364762 0.57094,-0.643441 0.24648,-0.278679 0.54714,-0.612745 0.66813,-0.742369 0.12098,-0.129624 0.46384,-0.510371 0.7619,-0.846104 1.74911,-1.970164 3.4424,-3.773614 3.88878,-4.141763 0.84951,-0.700633 1.63222,-0.868844 2.43368,-0.52302 0.54076,0.233337 1.34828,0.960908 2.60138,2.343836 0.31108,0.343302 0.66362,0.730115 0.78343,0.859585 0.11982,0.12947 0.49784,0.55106 0.84005,0.936866 0.34222,0.385807 0.92111,1.037526 1.28643,1.448265 0.36533,0.41074 0.88212,0.991783 1.14843,1.291208 0.26631,0.299425 0.52135,0.579574 0.56675,0.622554 0.10913,0.103318 1.63774,1.843409 5.3373,6.075702 0.76077,0.870329 1.5863,1.812818 1.83449,2.09442 0.24818,0.281601 0.77652,0.887286 1.17408,1.345965 0.39756,0.45868 0.81954,0.941406 0.93773,1.072725 0.30574,0.339697 1.60307,1.835822 2.02717,2.337802 0.38798,0.459234 0.51228,0.603729 1.1831,1.375317 0.24363,0.280226 0.68033,0.788853 0.97044,1.130283 0.61298,0.721412 1.12496,1.316514 2.38808,2.775766 0.50243,0.580446 1.18512,1.380446 1.5171,1.777778 0.33198,0.397332 0.73637,0.873325 0.89866,1.057762 0.16228,0.184437 0.61154,0.710507 0.99836,1.169045 0.38681,0.458538 0.86242,1.019723 1.05692,1.247078 0.19449,0.227355 0.58859,0.694691 0.87578,1.038525 0.55242,0.661388 0.57596,0.688994 1.45288,1.703796 0.30838,0.356867 0.83322,0.979033 1.16631,1.38259 0.60779,0.736374 0.82041,0.989452 1.37888,1.641237 0.16567,0.193354 0.30122,0.360725 0.30122,0.371933 0,0.01121 -0.10333,0.07719 -0.22962,0.146615 -0.20487,0.112624 -0.26279,0.126106 -0.53724,0.125046 -0.22807,-8.79e-4 -0.28994,-0.01149 -0.23925,-0.04101 z"
         id="path3505" />
      <path
         style="fill:none;stroke:#000000;stroke-width:1px;stroke-linecap:butt;stroke-linejoin:miter;stroke-opacity:1"
         d="m 220.99145,80.644689 c -0.44435,0.951266 -2.38564,10.905026 1.71917,9.221001 2.49018,-1.02161 5.4364,-6.179427 6.25153,-8.43956 0.55807,-1.547388 0.74774,-3.210994 0.93773,-4.844933 0.0725,-0.623121 0.2201,-1.373603 -0.15629,-1.875458 -0.20015,-0.266862 -0.57439,0.363612 -0.78144,0.625152 -0.78943,0.997171 -1.54027,2.031259 -2.18803,3.125764 -2.10138,3.5506 -2.58126,5.200179 -4.21979,8.908424 -0.14998,0.339432 -1.2503,2.19047 -1.2503,3.125764 0,0.368374 0.52096,-0.520961 0.78144,-0.781441 0.65172,-0.651722 1.35795,-1.246584 2.03175,-1.875458 2.74007,-2.557399 5.06385,-4.80376 5.93895,-8.595849 0.0712,-0.308772 0.11544,-0.774691 -0.15629,-0.937729 -1.29635,-0.777808 -3.89842,1.550306 -5.00122,2.344323 -3.75229,2.701649 -8.50534,5.934722 -9.84616,10.627594"
         id="path3729" />
      <rect
         style="fill:#ffffff"
         id="rect3753"
         width="35.008549"
         height="18.598291"
         x="204.73749"
         y="78.300369" />
      <rect
         style="fill:#ffffff"
         id="rect3755"
         width="26.100122"
         height="20.004885"
         x="216.30281"
         y="66.109894" />
      <rect
         style="fill:#ffffff"
         id="rect3757"
         width="35.321125"
         height="24.380953"
         x="225.36752"
         y="55.16972" />
      <rect
         style="fill:#ffffff"
         id="rect3759"
         width="20.630037"
         height="20.317461"
         x="237.24542"
         y="42.51038" />
      <rect
         style="fill:#ffffff"
         id="rect3761"
         width="20.317461"
         height="7.8144078"
         x="273.0354"
         y="87.833946" />
      <rect
         style="fill:#ffffff"
         id="rect3763"
         width="19.53602"
         height="14.534799"
         x="268.50305"
         y="77.050064" />
      <rect
         style="fill:#ffffff"
         id="rect3765"
         width="16.253969"
         height="24.068377"
         x="253.34311"
         y="49.543346" />
      <rect
         style="fill:#ffffff"
         id="rect3767"
         width="19.223444"
         height="17.504274"
         x="233.96336"
         y="52.200245" />
      <rect
         style="fill:#ffffff"
         id="rect3769"
         width="14.847375"
         height="15.003663"
         x="266.94019"
         y="67.203911" />
      <rect
         style="fill:#ffffff"
         id="rect3771"
         width="9.0647135"
         height="17.191698"
         x="263.9707"
         y="59.076923" />
      <rect
         style="fill:#ffffff"
         id="rect3773"
         width="12.034188"
         height="8.7521372"
         x="280.69354"
         y="83.770454" />
      <rect
         style="fill:#ffffff"
         id="rect3775"
         width="42.51038"
         height="106.43224"
         x="228.33699"
         y="86.896217" />
      <rect
         style="fill:#ffffff"
         id="rect3777"
         width="12.971938"
         height="13.753355"
         x="268.81564"
         y="82.207573" />
      <rect
         style="fill:#ffffff"
         id="rect3779"
         width="43.291821"
         height="67.829063"
         x="227.71184"
         y="182.54457" />
      <rect
         style="fill:#ffffff"
         id="rect3781"
         width="41.572651"
         height="65.641029"
         x="228.18071"
         y="246.31013" />
    </g>
  </g>
  <metadata
     id="metadata64">
    <rdf:RDF>
      <cc:Work
         rdf:about="">
        <dc:title>ionicons-v5-a</dc:title>
      </cc:Work>
    </rdf:RDF>
  </metadata>
</svg>
