<?xml version="1.0" encoding="UTF-8" standalone="no"?>
<svg
   fill="#e5e5e6"
   viewBox="0 0 512 512"
   version="1.1"
   id="svg46"
   sodipodi:docname="grabcad.svg"
   inkscape:version="1.1.1 (3bf5ae0d25, 2021-09-20)"
   xmlns:inkscape="http://www.inkscape.org/namespaces/inkscape"
   xmlns:sodipodi="http://sodipodi.sourceforge.net/DTD/sodipodi-0.dtd"
   xmlns:xlink="http://www.w3.org/1999/xlink"
   xmlns="http://www.w3.org/2000/svg"
   xmlns:svg="http://www.w3.org/2000/svg">
  <defs
     id="defs50">
    <clipPath
       clipPathUnits="userSpaceOnUse"
       id="clipPath182">
      <use
         x="0"
         y="0"
         xlink:href="#g178"
         id="use184"
         width="100%"
         height="100%" />
    </clipPath>
    <filter
       id="filter0_i"
       x="13"
       y="-4"
       width="228.233"
       height="260"
       filterUnits="userSpaceOnUse"
       color-interpolation-filters="sRGB">
      <feFlood
         flood-opacity="0"
         result="BackgroundImageFix"
         id="feFlood16" />
      <feBlend
         mode="normal"
         in="SourceGraphic"
         in2="BackgroundImageFix"
         result="shape"
         id="feBlend18" />
      <feColorMatrix
         in="SourceAlpha"
         type="matrix"
         values="0 0 0 0 0 0 0 0 0 0 0 0 0 0 0 0 0 0 127 0"
         result="hardAlpha"
         id="feColorMatrix20" />
      <feOffset
         dx="-2"
         dy="-4"
         id="feOffset22" />
      <feGaussianBlur
         stdDeviation="4"
         id="feGaussianBlur24" />
      <feComposite
         in2="hardAlpha"
         operator="arithmetic"
         k2="-1"
         k3="1"
         id="feComposite26"
         k1="0"
         k4="0" />
      <feColorMatrix
         type="matrix"
         values="0 0 0 0 0 0 0 0 0 0 0 0 0 0 0 0 0 0 0.15 0"
         id="feColorMatrix28" />
      <feBlend
         mode="normal"
         in2="shape"
         result="effect1_innerShadow"
         id="feBlend30" />
    </filter>
    <radialGradient
       id="paint0_radial"
       cx="0"
       cy="0"
       r="1"
       gradientUnits="userSpaceOnUse"
       gradientTransform="matrix(412.40117,351.24037,-210.2427,246.85184,76.315702,69.376668)">
      <stop
         stop-color="#E6E6E6"
         id="stop33" />
      <stop
         offset="1"
         stop-color="#DEDEDE"
         id="stop35" />
    </radialGradient>
    <filter
       id="filter0_i-0"
       x="13"
       y="-4"
       width="228.233"
       height="260"
       filterUnits="userSpaceOnUse"
       color-interpolation-filters="sRGB">
      <feFlood
         flood-opacity="0"
         result="BackgroundImageFix"
         id="feFlood381" />
      <feBlend
         mode="normal"
         in="SourceGraphic"
         in2="BackgroundImageFix"
         result="shape"
         id="feBlend383" />
      <feColorMatrix
         in="SourceAlpha"
         type="matrix"
         values="0 0 0 0 0 0 0 0 0 0 0 0 0 0 0 0 0 0 127 0"
         result="hardAlpha"
         id="feColorMatrix385" />
      <feOffset
         dx="-2"
         dy="-4"
         id="feOffset387" />
      <feGaussianBlur
         stdDeviation="4"
         id="feGaussianBlur389" />
      <feComposite
         in2="hardAlpha"
         operator="arithmetic"
         k2="-1"
         k3="1"
         id="feComposite391" />
      <feColorMatrix
         type="matrix"
         values="0 0 0 0 0 0 0 0 0 0 0 0 0 0 0 0 0 0 0.15 0"
         id="feColorMatrix393" />
      <feBlend
         mode="normal"
         in2="shape"
         result="effect1_innerShadow"
         id="feBlend395" />
    </filter>
    <radialGradient
       id="paint0_radial-5"
       cx="0"
       cy="0"
       r="1"
       gradientUnits="userSpaceOnUse"
       gradientTransform="translate(25.9147 24.8062) rotate(40.4209) scale(307.592 184.116)">
      <stop
         stop-color="#E6E6E6"
         id="stop398" />
      <stop
         offset="1"
         stop-color="#DEDEDE"
         id="stop400" />
    </radialGradient>
  </defs>
  <sodipodi:namedview
     id="namedview48"
     pagecolor="#505050"
     bordercolor="#eeeeee"
     borderopacity="1"
     inkscape:pageshadow="0"
     inkscape:pageopacity="0"
     inkscape:pagecheckerboard="0"
     showgrid="false"
     inkscape:zoom="1.0965679"
     inkscape:cx="289.08379"
     inkscape:cy="287.71588"
     inkscape:window-width="1460"
     inkscape:window-height="1037"
     inkscape:window-x="613"
     inkscape:window-y="19"
     inkscape:window-maximized="0"
     inkscape:current-layer="svg46" />
  <g
     filter="url(#filter0_i)"
     id="g6"
     transform="matrix(1.761116,0,0,1.761116,30.676909,25.690073)">
    <path
       id="path4"
       style="fill:url(#paint0_radial);stroke-width:1.76112"
       d="M 256.30469 25.689453 C 251.02464 25.689453 245.74467 27.033715 241.0918 29.722656 C 184.53162 62.348457 128.68777 94.974835 72.486328 127.24219 C 62.821147 132.62011 57.09375 143.01777 57.09375 153.77344 L 57.09375 348.45312 C 57.09375 359.20829 62.821147 369.60573 72.486328 374.98242 C 128.68777 407.60886 184.88965 439.87552 241.0918 472.50195 C 250.39753 477.87864 261.85257 477.87864 271.51758 472.50195 C 327.71831 439.87552 383.92231 407.60886 440.12305 374.98242 C 449.43054 369.60573 455.51565 359.56756 455.51562 348.45312 L 455.51562 153.77344 C 455.51562 143.01777 449.78805 132.62011 440.12305 127.24219 C 383.56481 94.974835 327.36081 62.348457 271.51758 29.722656 C 266.86383 27.033715 261.58473 25.689453 256.30469 25.689453 z M 256.29883 126.07422 C 258.019 126.07422 259.73893 126.55224 261.26758 127.50781 C 283.05612 139.73964 304.46083 152.35215 325.86719 164.58398 C 302.55002 177.96265 279.61404 191.3429 256.29688 204.7207 C 232.98144 191.3429 210.04587 177.96265 186.72852 164.58398 C 208.13506 152.35215 229.92175 140.12199 251.32812 127.50781 C 252.85678 126.55224 254.57866 126.07422 256.29883 126.07422 z M 182.91016 171.4668 C 206.22716 184.84547 229.1631 198.22272 252.47852 211.60156 L 252.47852 291.87305 C 231.07391 279.25817 209.28634 267.02894 187.88086 254.41406 C 184.82286 252.88541 182.91016 249.82729 182.91016 246.00391 L 182.91016 171.4668 z M 329.69922 171.4668 L 329.69922 246.00391 C 329.69922 249.44512 327.78581 252.50325 324.72852 254.41406 C 303.32215 267.02893 281.53527 279.25817 260.12891 291.87305 L 260.12891 211.60156 C 283.44608 198.22271 306.38205 184.84547 329.69922 171.4668 z M 363.43164 250.46875 C 366.14904 250.51454 368.86634 251.15585 371.40234 252.25391 C 375.38775 254.08371 376.47466 259.57585 373.21484 262.86914 C 356.18484 281.53697 340.24193 301.3012 325.38867 321.79883 C 318.8655 329.85065 311.25713 337.17164 302.5625 343.02734 C 289.51791 351.44547 277.20066 360.96319 265.60547 371.21289 C 261.25904 374.87248 255.46266 375.60431 250.39062 373.4082 C 230.1008 364.62375 210.1733 355.47411 190.24609 345.95703 C 188.8389 345.38792 187.66714 344.81864 186.52734 344.25 C 175.79786 339.26822 164.98456 335.3662 153.29102 332.41211 C 146.04473 330.58231 140.97266 323.99586 140.97266 316.30859 L 140.97266 275.31445 C 140.97266 270.92222 144.59468 267.62695 148.58008 267.62695 L 170.31836 267.62695 C 173.57924 267.62695 176.47757 267.99266 179.73828 269.08984 C 186.62231 271.28596 193.14553 274.2154 199.30469 277.875 C 208.0009 282.99984 216.6957 287.75885 225.0293 293.25 C 239.15873 302.03445 254.73837 307.89049 271.04102 311.18555 C 273.57703 311.55009 276.47571 312.28104 279.01172 313.01367 C 280.8239 313.37998 282.63685 314.11113 284.44727 314.84375 C 288.07166 316.30725 290.60742 320.33365 290.60742 324.36133 C 290.60742 328.38724 288.07166 332.04715 284.44727 333.87695 C 282.99788 334.60957 281.54725 334.97548 280.09961 335.3418 C 275.02583 336.80528 269.59106 337.90391 264.15625 338.63477 C 261.25921 339.00109 258.36169 339.00195 255.46289 339.00195 C 253.28968 338.63563 251.47624 338.26798 249.66406 337.53711 C 246.40423 336.43818 243.50622 334.97588 240.60742 333.87695 C 238.79698 333.14608 236.98406 332.41318 235.17188 332.04688 C 232.99863 331.31423 230.82361 330.95029 228.65039 330.58398 C 225.02777 329.85135 221.76715 329.48434 218.14453 329.48438 C 213.07251 329.48438 207.637 329.48526 202.56445 329.85156 C 207.2742 332.04768 211.98462 333.51217 217.05664 334.60938 C 220.67925 335.342 224.66644 336.07207 228.28906 336.80469 C 230.10124 337.17101 231.54914 337.53798 233.36133 337.9043 C 235.17175 338.26885 236.62139 339.00173 238.43359 339.73438 C 241.69341 341.19786 244.59193 342.29735 247.85352 343.39453 C 250.38953 344.49346 252.9269 344.85634 255.46289 345.22266 C 259.08551 345.58897 262.34614 345.59005 265.96875 344.85742 C 271.40355 344.12656 277.20191 342.66077 282.63672 341.19727 C 284.44714 340.83097 285.8968 340.09982 287.70898 339.36719 C 293.8676 336.80477 297.85156 330.94966 297.85156 324.36133 C 297.85156 317.77299 293.86613 311.54894 288.07031 308.98828 C 285.89533 308.25566 284.08513 307.52383 281.91016 306.79297 C 279.01137 306.06034 276.47497 305.32725 273.57617 304.96094 L 273.2168 304.96094 C 279.01264 303.86377 284.08648 302.03313 289.51953 299.4707 C 295.31713 296.54197 301.11403 293.24924 306.54883 289.58789 C 319.95444 280.43712 332.2723 270.55565 344.22852 259.94141 C 347.85289 256.64635 351.47554 254.45003 355.46094 252.25391 C 357.99695 250.97269 360.71424 250.42296 363.43164 250.46875 z "
       transform="matrix(0.56782177,0,0,0.56782177,-17.419017,-14.587383)" />
  </g>
  <g
     id="g180"
     clip-path="url(#clipPath182)"
     transform="matrix(1.761116,0,0,1.761116,30.676909,25.690073)">
    <g
       inkscape:label="Clip"
       id="g178" />
  </g>
  <path
     style="fill:#e5e5e6;fill-opacity:1;stroke-width:0.911936"
     d="M 110.80025,295.45902 C 97.433433,291.08228 89.51347,288.01037 72.726915,280.6916 l -11.627187,-5.06933 v -24.01501 c 0,-23.2041 -0.06254,-24.04847 -1.852201,-25.00626 -1.823242,-0.97577 -1.848193,-1.59555 -1.595888,-39.64224 l 0.256312,-38.65095 2.361108,-2.56691 c 3.189668,-3.46769 6.430538,-8.26877 6.666384,-9.87568 0.319362,-2.17595 4.305537,-5.94815 10.579137,-10.01124 10.166536,-6.58437 79.03793,-46.106408 81.00574,-46.485372 1.02733,-0.197845 10.20322,-5.175468 20.39087,-11.061383 10.18765,-5.885916 19.28454,-10.655863 20.21529,-10.599884 0.93076,0.05598 3.1878,-0.839495 5.01565,-1.989942 3.85028,-2.423365 26.87571,-15.804319 30.17744,-17.537257 1.53443,-0.805363 2.58139,-0.881238 3.35063,-0.242827 0.78457,0.651142 2.43358,0.30159 5.51966,-1.170043 3.13542,-1.495169 5.97412,-2.085796 9.87244,-2.054094 5.79086,0.04709 8.94017,1.393068 22.34244,9.548861 3.26017,1.983939 8.18463,4.859434 10.94324,6.389986 17.06774,9.469666 16.59105,8.901382 26.84013,31.997863 10.16708,22.911712 19.63754,54.053802 21.15687,69.570982 0.37996,3.88069 0.27651,4.33628 -0.63768,2.80829 -7.41309,-12.39021 -10.27075,-15.02526 -24.17448,-22.29122 -3.97428,-2.07692 -9.68819,-5.25563 -12.69758,-7.06381 -3.00939,-1.80818 -8.13903,-4.80107 -11.3992,-6.65086 -3.26017,-1.84979 -7.51633,-4.32147 -9.45814,-5.49262 l -3.53055,-2.12935 0.62822,1.97932 c 0.34551,1.08862 0.44144,1.97931 0.21317,1.97931 -0.22827,0 -3.15064,-1.28014 -6.49416,-2.84476 -7.68559,-3.59652 -15.73849,-4.42493 -22.06372,-2.26971 -5.71578,1.94757 -23.13036,11.63316 -23.13036,12.86459 0,0.52098 -7.22297,5.04331 -16.05105,10.04962 -18.22993,10.338 -21.8768,13.2558 -26.19422,20.95755 -1.687,3.00939 -4.35001,7.52348 -5.91781,10.0313 -1.94431,3.11009 -3.15842,6.58912 -3.81897,10.94324 -0.95483,6.29393 -1.72406,58.75622 -0.98731,67.33618 0.25124,2.926 -0.009,4.65224 -0.77204,5.12392 -0.63301,0.39122 -6.13834,0.91199 -12.23407,1.15725 -7.90441,0.31804 -12.12934,0.9145 -14.73088,2.07967 -2.00626,0.89856 -5.49442,1.88029 -7.75146,2.18162 -3.85075,0.5141 -4.27214,0.85706 -6.83608,5.56352 -2.71253,4.97922 -2.73571,5.14565 -3.19178,22.91128 l -0.45941,17.89562 z M 128.6869,148.71136 c 20.65132,-3.68366 33.01345,-16.96965 35.03964,-37.65827 0.57439,-5.86483 -1.08428,-19.568592 -2.9931,-24.728608 -0.70828,-1.914676 -0.7996,-1.926361 -2.94793,-0.377242 -1.21936,0.879251 -4.90319,3.118894 -8.18628,4.976985 -10.90215,6.170136 -14.11924,8.021853 -21.01622,12.096675 -3.76174,2.22248 -9.27673,5.33746 -12.25553,6.92219 -2.97881,1.58473 -6.46697,3.59969 -7.75146,4.47769 -1.2845,0.87799 -5.20805,3.24047 -8.719002,5.24994 -17.657387,10.10607 -21.690615,12.5916 -24.8155,15.29284 l -3.394476,2.93429 4.529657,2.02659 c 12.765831,5.71146 29.702581,9.82883 41.007111,9.96893 2.50782,0.0311 7.68422,-0.50082 11.50309,-1.18201 z"
     id="path4339" />
  <path
     style="fill:#e5e5e6;fill-opacity:1;stroke-width:0.911936"
     d="m 111.71219,295.8796 c -4.51409,-1.4591 -9.64373,-3.24421 -11.3992,-3.96689 -1.755482,-0.72269 -6.474752,-2.607 -10.487271,-4.18736 -8.433681,-3.32168 -9.974811,-3.96962 -20.746549,-8.72249 l -7.979442,-3.52082 v -23.39802 c 0,-22.19819 -0.09575,-23.51975 -1.867209,-25.7718 -1.823718,-2.31848 -1.860889,-3.25167 -1.595888,-40.066 l 0.27132,-37.69224 3.415415,-3.98898 c 1.878478,-2.19394 4.283961,-5.78317 5.345518,-7.97606 3.187516,-6.58452 5.469844,-8.07346 63.737996,-41.581117 13.48905,-7.75701 19.88722,-11.285742 27.81406,-15.340058 5.01565,-2.565342 14.66385,-7.792609 21.44046,-11.616149 6.77659,-3.823539 13.75291,-7.607409 15.50291,-8.408602 8.41846,-3.85417 11.74293,-5.537849 15.94893,-8.077347 2.50782,-1.514175 5.17524,-3.041331 5.92758,-3.393682 0.75235,-0.352351 3.41976,-1.851788 5.92759,-3.332082 10.22701,-6.036699 12.34902,-6.994549 15.49571,-6.994549 1.80925,0 4.60288,-0.681834 6.20806,-1.515186 1.70251,-0.883882 5.0543,-1.517147 8.0446,-1.519894 5.58248,-0.0051 10.77321,2.18282 23.32876,9.833335 3.61262,2.201285 8.88683,5.274707 11.72046,6.829827 6.63963,3.643872 12.1934,7.501204 14.7295,10.230266 4.10283,4.414984 16.07314,32.358 22.98541,53.656228 5.63211,17.35377 11.03003,43.45355 8.03827,38.86629 -7.22706,-11.08127 -11.10257,-14.59531 -23.46086,-21.27272 -9.20145,-4.97171 -15.9361,-8.78265 -18.23873,-10.32075 -1.25391,-0.83758 -4.53688,-2.75798 -7.29549,-4.26754 -2.7586,-1.50955 -6.55454,-3.66457 -8.43541,-4.78891 -2.98136,-1.7822 -3.41976,-1.84948 -3.41976,-0.52483 0,1.64212 -1.91184,1.36708 -6.42101,-0.92374 -4.93559,-2.50745 -13.33985,-3.59115 -18.86402,-2.43244 -5.09744,1.0692 -21.04398,9.2882 -25.82284,13.30935 -1.27761,1.07504 -9.21423,6.04995 -17.63694,11.05535 -8.42271,5.00541 -17.02206,10.8332 -19.10967,12.95065 -5.68158,5.76281 -14.25296,21.72949 -15.1672,28.25329 -0.72828,5.19689 -1.08323,20.14944 -1.29089,54.37982 -0.0864,14.24751 -0.33647,17.28715 -1.47203,17.89577 -0.75235,0.40322 -5.90035,0.93673 -11.44001,1.18557 -6.56563,0.29492 -12.12151,1.10867 -15.95888,2.33744 -3.23773,1.03675 -6.94469,2.10612 -8.2377,2.37635 -1.66545,0.34809 -3.1201,1.89371 -4.98898,5.30102 -2.58359,4.71034 -2.64804,5.16728 -3.1207,22.12605 -0.40306,14.46128 -0.70817,17.34525 -1.85054,17.49148 -0.75235,0.0963 -5.06125,-1.01872 -9.57533,-2.47783 z"
     id="path4378" />
  <path
     style="fill:#e5e5e6;fill-opacity:1;stroke-width:0.911936"
     d="M 106.69654,294.15392 C 99.423848,291.67944 86.702337,286.71988 78.426516,283.13269 70.150695,279.54551 62.891568,276.4075 62.295124,276.15934 61.50763,275.8317 61.13306,269.2872 60.927219,252.25927 60.679516,231.76834 60.442447,228.50349 59.047871,226.37745 57.59364,224.16047 57.451983,220.63342 57.451983,186.64217 v -37.30234 l 3.526355,-4.45083 c 1.939495,-2.44795 4.39197,-6.15943 5.449943,-8.24774 1.057974,-2.0883 3.677421,-5.20519 5.820991,-6.92642 6.502246,-5.22114 59.446178,-36.087086 86.484478,-50.419867 8.24456,-4.370375 19.09382,-10.291565 24.10946,-13.1582 8.15523,-4.661022 18.82546,-10.052695 19.89449,-10.052695 0.22044,0 7.51839,-4.103713 16.21767,-9.119362 10.89871,-6.283751 16.71181,-9.119362 18.69497,-9.119362 1.58294,0 4.4671,-0.674745 6.40922,-1.499433 4.88546,-2.074527 12.63345,-1.945955 17.66614,0.293155 4.08426,1.817144 28.98317,16.16386 34.19761,19.704613 7.94496,5.394864 11.62756,11.691963 21.71381,37.129775 7.2242,18.219646 11.74774,32.894286 14.82551,48.094906 2.74585,13.56128 2.63814,15.83763 -0.50749,10.72498 -5.27106,-8.56713 -11.1505,-13.50795 -24.63263,-20.70018 -4.2633,-2.27431 -13.43914,-7.47274 -20.39075,-11.55208 -6.9516,-4.07933 -12.97038,-7.41697 -13.37506,-7.41697 -0.40468,0 -0.90017,0.49317 -1.10109,1.09593 -0.26262,0.78787 -1.62978,0.55467 -4.86365,-0.82961 -7.30111,-3.12526 -15.12339,-4.32552 -20.07098,-3.0797 -5.76868,1.45257 -16.84391,7.13939 -25.65162,13.1714 -4.02721,2.75805 -11.99336,7.76524 -17.70256,11.12708 -18.84039,11.0941 -22.55112,14.80774 -30.41906,30.44285 -4.4027,8.74903 -4.96377,14.70374 -5.00701,53.14062 -0.0299,26.60531 -0.16035,28.98751 -1.62842,29.74112 -0.87773,0.45057 -5.90478,1.08382 -11.17121,1.40724 -9.01289,0.55348 -20.48111,2.99709 -25.48341,5.42993 -1.22597,0.59624 -3.21485,2.99968 -4.41973,5.34099 -2.00784,3.90163 -2.22711,5.61362 -2.62716,20.51212 -0.24006,8.94034 -0.59794,16.76815 -0.79529,17.39511 -0.54304,1.72519 -1.63818,1.49367 -15.91897,-3.36528 z"
     id="path4417" />
</svg>
