<?xml version="1.0" encoding="UTF-8" standalone="no"?>
<svg
   width="256"
   height="256"
   viewBox="0 0 256 256"
   fill="none"
   version="1.1"
   id="svg40"
   sodipodi:docname="grabcad.svg"
   inkscape:version="1.1.1 (3bf5ae0d25, 2021-09-20)"
   xmlns:inkscape="http://www.inkscape.org/namespaces/inkscape"
   xmlns:sodipodi="http://sodipodi.sourceforge.net/DTD/sodipodi-0.dtd"
   xmlns="http://www.w3.org/2000/svg"
   xmlns:svg="http://www.w3.org/2000/svg">
  <sodipodi:namedview
     id="namedview42"
     pagecolor="#505050"
     bordercolor="#eeeeee"
     borderopacity="1"
     inkscape:pageshadow="0"
     inkscape:pageopacity="0"
     inkscape:pagecheckerboard="0"
     showgrid="false"
     showguides="false"
     inkscape:zoom="2.2621893"
     inkscape:cx="166.65272"
     inkscape:cy="112.28061"
     inkscape:window-width="1920"
     inkscape:window-height="1012"
     inkscape:window-x="-8"
     inkscape:window-y="-8"
     inkscape:window-maximized="1"
     inkscape:current-layer="svg40" />
  <rect
     width="256"
     height="256"
     id="rect2"
     x="6.6307449"
     y="-10.609192" />
  <g
     id="g145"
     transform="translate(6.6307449,-10.609192)">
    <g
       id="g280">
      <path
         id="path4"
         style="fill:url(#paint0_radial);filter:url(#filter0_i)"
         d="m 122.14761,20.776334 c -2.83995,0 -5.67845,0.701598 -8.18106,2.103405 C 83.544782,39.888319 53.507924,56.896591 23.279126,73.718298 18.080561,76.521932 15,81.941953 15,87.549128 V 189.03975 c 0,5.6069 3.080561,11.02785 8.279126,13.83084 30.228798,17.00891 60.45823,33.83144 90.687424,50.84035 5.00523,2.80299 11.16737,2.80299 16.36584,0 30.22842,-17.00891 60.45715,-33.83144 90.68557,-50.84035 5.00618,-2.80299 8.27912,-8.03664 8.27912,-13.83084 V 87.549128 c 0,-5.60719 -3.08065,-11.027196 -8.27912,-13.83083 -30.42071,-16.821706 -60.64944,-33.829979 -90.68557,-50.838559 -2.50309,-1.401807 -5.34482,-2.103405 -8.18478,-2.103405 z m -0.002,52.332282 c 0.92522,0 1.84932,0.249591 2.67152,0.747758 11.71929,6.376734 23.23269,12.951995 34.74643,19.328731 -12.5415,6.974605 -24.8783,13.948725 -37.41979,20.922875 C 109.60337,107.13383 97.267554,100.15971 84.725966,93.185105 96.239795,86.80837 107.95866,80.43243 119.4724,73.856374 c 0.82221,-0.498167 1.74814,-0.747758 2.67336,-0.747758 z m -39.473387,23.66465 c 12.541402,6.974604 24.877397,13.948174 37.417947,20.922864 v 41.84754 c -11.51279,-6.57642 -23.231312,-12.95314 -34.744576,-19.52956 -1.644792,-0.79692 -2.673371,-2.38932 -2.673371,-4.38255 z m 78.952337,0 v 38.858294 c 0,1.79401 -1.02896,3.3864 -2.67337,4.38255 -11.51374,6.57642 -23.23269,12.95314 -34.74643,19.52956 v -41.84754 c 12.5415,-6.97469 24.8783,-13.94826 37.4198,-20.922864 z m 18.14377,41.185854 c 1.4616,0.0239 2.92261,0.35822 4.28664,0.93066 2.14361,0.95392 2.72835,3.8169 0.975,5.53376 -9.15984,9.73197 -17.73452,20.03495 -25.72357,30.72083 -3.50859,4.1976 -7.60062,8.01482 -12.27716,11.06754 -7.01623,4.38857 -13.64065,9.34994 -19.87729,14.69334 -2.3378,1.90784 -5.45672,2.28894 -8.18478,1.14406 -10.91319,-4.57953 -21.63057,-9.34993 -32.348718,-14.3114 -6.430833,-3.05272 -12.861831,-5.34199 -19.877302,-7.05977 -3.897526,-0.95392 -6.627002,-4.38814 -6.627002,-8.39569 v -21.37116 c 0,-2.28978 1.948776,-4.00777 4.092387,-4.00777 h 11.692531 c 1.753587,0 3.313559,0.19012 5.067379,0.7621 3.702679,1.14488 7.210485,2.67196 10.523278,4.57979 4.677392,2.6717 9.354427,5.15287 13.836777,8.01553 7.59973,4.57954 15.97994,7.63186 24.74858,9.34967 1.36401,0.19003 2.92261,0.57204 4.28664,0.95397 0.97472,0.19097 1.94936,0.57204 2.92313,0.95398 1.94943,0.76294 3.3135,2.86202 3.3135,4.96174 0,2.0988 -1.36407,4.00603 -3.3135,4.95994 -0.77958,0.38194 -1.55802,0.57293 -2.33665,0.7639 -2.72901,0.76295 -5.6538,1.33686 -8.57699,1.71787 -1.55822,0.19097 -3.116,0.19008 -4.67517,0.19008 -1.16889,-0.19097 -2.14453,-0.38109 -3.11924,-0.76211 -1.75335,-0.5729 -3.31208,-1.33684 -4.87127,-1.90974 -0.97376,-0.38101 -1.94842,-0.763 -2.92313,-0.95397 -1.1689,-0.38193 -2.33886,-0.57114 -3.50776,-0.7621 -1.94848,-0.38194 -3.70352,-0.57203 -5.652,-0.57203 -2.728062,0 -5.650695,-8.9e-4 -8.379038,0.19007 2.533211,1.14489 5.066347,1.908 7.794408,2.47998 1.94848,0.38194 4.09204,0.76391 6.04052,1.14584 0.97471,0.19097 1.75601,0.38106 2.73072,0.57203 0.97377,0.19005 1.75232,0.57204 2.72703,0.95397 1.75335,0.76295 3.31309,1.33597 5.06738,1.90795 1.36403,0.57291 2.72835,0.76301 4.09238,0.95398 1.94848,0.19096 3.70169,0.19185 5.65017,-0.19008 2.92319,-0.38102 6.04231,-1.145 8.9655,-1.90795 0.97377,-0.19097 1.75231,-0.57204 2.72703,-0.95397 3.31251,-1.33585 5.45589,-4.38901 5.45589,-7.82366 0,-3.43465 -2.14241,-6.67881 -5.25979,-8.01375 -1.16984,-0.38193 -2.14365,-0.76483 -3.3135,-1.14584 -1.55916,-0.38194 -2.92359,-0.76301 -4.48275,-0.95397 h -0.19426 c 3.11738,-0.57199 5.84715,-1.52608 8.76939,-2.86193 3.11833,-1.52682 6.23658,-3.24306 9.15977,-5.15181 7.21041,-4.7705 13.83499,-9.92201 20.26583,-15.45546 1.94942,-1.71778 3.89875,-2.86288 6.04237,-4.00776 1.36403,-0.66792 2.82504,-0.95453 4.28664,-0.93066 z"
         sodipodi:nodetypes="sccssccccssccsscccccsccccsccsccccsccccccccssssccccccsccccccccsccccccccccsccccccccs" />
    </g>
  </g>
  <defs
     id="defs38">
    <filter
       id="filter0_i"
       x="13"
       y="-4"
       width="228.233"
       height="260"
       filterUnits="userSpaceOnUse"
       color-interpolation-filters="sRGB">
      <feFlood
         flood-opacity="0"
         result="BackgroundImageFix"
         id="feFlood16" />
      <feBlend
         mode="normal"
         in="SourceGraphic"
         in2="BackgroundImageFix"
         result="shape"
         id="feBlend18" />
      <feColorMatrix
         in="SourceAlpha"
         type="matrix"
         values="0 0 0 0 0 0 0 0 0 0 0 0 0 0 0 0 0 0 127 0"
         result="hardAlpha"
         id="feColorMatrix20" />
      <feOffset
         dx="-2"
         dy="-4"
         id="feOffset22" />
      <feGaussianBlur
         stdDeviation="4"
         id="feGaussianBlur24" />
      <feComposite
         in2="hardAlpha"
         operator="arithmetic"
         k2="-1"
         k3="1"
         id="feComposite26" />
      <feColorMatrix
         type="matrix"
         values="0 0 0 0 0 0 0 0 0 0 0 0 0 0 0 0 0 0 0.15 0"
         id="feColorMatrix28" />
      <feBlend
         mode="normal"
         in2="shape"
         result="effect1_innerShadow"
         id="feBlend30" />
    </filter>
    <radialGradient
       id="paint0_radial"
       cx="0"
       cy="0"
       r="1"
       gradientUnits="userSpaceOnUse"
       gradientTransform="matrix(234.17036,199.44193,-119.38038,140.16785,25.9147,24.8062)">
      <stop
         stop-color="#E6E6E6"
         id="stop33" />
      <stop
         offset="1"
         stop-color="#DEDEDE"
         id="stop35" />
    </radialGradient>
  </defs>
</svg>
