<?xml version="1.0" encoding="UTF-8" standalone="no"?>
<!-- Created with Inkscape (http://www.inkscape.org/) -->

<svg
   width="512"
   height="512"
   viewBox="0 0 135.46666 135.46667"
   version="1.1"
   id="svg1373"
   inkscape:version="1.1.1 (3bf5ae0d25, 2021-09-20)"
   sodipodi:docname="leeds.svg"
   xmlns:inkscape="http://www.inkscape.org/namespaces/inkscape"
   xmlns:sodipodi="http://sodipodi.sourceforge.net/DTD/sodipodi-0.dtd"
   xmlns="http://www.w3.org/2000/svg"
   xmlns:svg="http://www.w3.org/2000/svg">
  <sodipodi:namedview
     id="namedview1375"
     pagecolor="#505050"
     bordercolor="#eeeeee"
     borderopacity="1"
     inkscape:pageshadow="0"
     inkscape:pageopacity="0"
     inkscape:pagecheckerboard="0"
     inkscape:document-units="mm"
     showgrid="false"
     units="px"
     width="512px"
     inkscape:zoom="0.64052329"
     inkscape:cx="396.55076"
     inkscape:cy="435.58135"
     inkscape:window-width="1920"
     inkscape:window-height="1012"
     inkscape:window-x="-8"
     inkscape:window-y="-8"
     inkscape:window-maximized="1"
     inkscape:current-layer="layer1" />
  <defs
     id="defs1370" />
  <g
     inkscape:label="Layer 1"
     inkscape:groupmode="layer"
     id="layer1">
    <path
       style="fill:#000000;stroke-width:0.451958"
       d="M 4.2334408,67.733122 V 4.9111048 H 67.733382 131.23333 V 67.733122 130.55513 h -7.68327 -7.68325 V 111.55904 92.562922 l -5.53648,0.12702 -5.53646,0.12701 -0.11804,18.869188 c -0.10219,16.35674 -0.20755,18.8692 -0.79092,18.8692 -0.58625,0 -0.67297,-2.68036 -0.67297,-20.79865 V 88.958022 l -10.056048,0.12173 -10.05604,0.12174 -0.1175,20.677038 c -0.10167,17.89445 -0.20756,20.67703 -0.78596,20.67703 -0.57738,0 -0.68449,-2.57047 -0.78636,-18.86921 l -0.11804,-18.869188 -5.53648,-0.12701 -5.53646,-0.12702 v 18.996118 18.99609 H 37.226194 4.2333348 Z m 77.2846412,21.91992 v -1.58185 h 11.52489 11.524908 v 1.58185 1.58185 h 4.51957 4.51957 v -3.84164 c 0,-3.54034 -0.0708,-3.84164 -0.90392,-3.84164 -0.88313,0 -0.90391,-0.30129 -0.90391,-13.10673 V 57.338111 h -1.11781 -1.11779 l -0.12517,-6.66636 -0.12517,-6.666362 H 93.042812 76.772342 l -0.12516,6.666362 -0.12517,6.66636 h -1.11776 -1.11784 v 13.106771 c 0,12.80544 -0.0211,13.10673 -0.90392,13.10673 -0.83299,0 -0.90392,0.3013 -0.90392,3.84164 v 3.84164 h 4.51957 4.51957 z m 0,-16.27045 v -10.16904 h 2.93772 2.93772 v 1.58185 c 0,1.57348 -0.0106,1.58185 -2.03383,1.58185 h -2.03379 v 8.58717 c 0,8.2859 -0.0317,8.58719 -0.90392,8.58719 -0.87709,0 -0.9039,-0.30129 -0.9039,-10.16902 z m 8.58717,0 v -10.16904 h 2.93772 2.93772 v 1.58185 c 0,1.57348 -0.0106,1.58185 -2.0338,1.58185 h -2.0338 v 8.58717 c 0,8.2859 -0.0317,8.58719 -0.90392,8.58719 -0.87711,0 -0.90392,-0.30129 -0.90392,-10.16902 z m 8.43349,3.05069 c -0.16241,-3.91507 -0.29592,-8.49113 -0.29676,-10.16902 v -3.05071 h 3.163698 3.16368 v 1.58185 c 0,1.57348 -0.0106,1.58185 -2.0338,1.58185 h -2.0338 v 8.58717 c 0,8.0428 -0.0528,8.58719 -0.833148,8.58719 -0.7618,0 -0.85844,-0.60959 -1.12839,-7.11833 z M 79.348692,59.959456 c -0.29829,-0.298288 -0.54236,-0.705055 -0.54236,-0.903893 0,-0.19884 6.53969,-0.361585 14.53269,-0.361585 14.503998,0 14.531038,0.0019 13.714628,0.903919 -0.78239,0.864521 -1.39204,0.903919 -13.990348,0.903919 -9.6425,0 -13.31762,-0.145235 -13.71461,-0.54236 z m 7.14091,-10.756566 c 0,-2.209562 0.0304,-2.259786 1.35587,-2.259786 0.90392,0 1.35586,0.226043 1.35586,0.677932 0,0.37286 -0.30507,0.677935 -0.67793,0.677935 -0.47347,0 -0.67793,0.477059 -0.67793,1.581851 0,1.104794 -0.20439,1.581854 -0.67794,1.581854 -0.5122,0 -0.67793,-0.552395 -0.67793,-2.259786 z m 4.97152,0 c 0,-2.209562 0.0304,-2.259786 1.35589,-2.259786 0.90389,0 1.35587,0.226043 1.35587,0.677932 0,0.37286 -0.30508,0.677935 -0.67794,0.677935 -0.47346,0 -0.67793,0.477059 -0.67793,1.581851 0,1.104794 -0.20438,1.581854 -0.67796,1.581854 -0.51218,0 -0.67793,-0.552395 -0.67793,-2.259786 z m 5.42349,0 c 0,-2.209562 0.0304,-2.259786 1.35586,-2.259786 0.90392,0 1.35587,0.226043 1.35587,0.677932 0,0.376639 -0.40172,0.677935 -0.90389,0.677935 -0.73172,0 -0.90392,0.301298 -0.90392,1.581851 0,0.870014 -0.20333,1.581854 -0.45198,1.581854 -0.24848,0 -0.45194,-1.016912 -0.45194,-2.259786 z m 8.424348,-7.570282 c -0.12306,-0.43502 -0.35483,-1.909528 -0.51509,-3.276697 -0.52953,-4.517724 0.72647,-4.099179 -11.891458,-3.962448 l -11.14759,0.120941 -0.3139,2.259786 c -0.17269,1.242898 -0.43166,3.022484 -0.57565,3.954632 l -0.26169,1.694846 h 12.46461 c 11.654988,0 12.450058,-0.05149 12.240848,-0.790927 z M 98.692452,29.768742 c -2.85119,-1.740055 -5.37858,-3.163704 -5.61639,-3.163704 -0.42118,0 -4.77186,2.493536 -8.82174,5.056044 l -2.00932,1.271365 h 10.81569 10.815688 z m -7.66765,75.790278 c -3.2233,-1.11018 -4.58365,-5.29925 -2.71579,-8.362898 1.92371,-3.15525 6.1339,-3.5218 8.88244,-0.77329 1.29693,1.29696 1.501,1.80607 1.501,3.745048 0,2.62958 -1.13397,4.39028 -3.45106,5.35842 -1.76675,0.73819 -2.15942,0.74123 -4.21659,0.0327 z m 4.06103,-1.44805 c 1.61375,-0.8345 2.25072,-1.94745 2.25072,-3.93266 0,-3.043498 -2.69446,-4.947148 -5.63072,-3.978078 -3.61132,1.19183 -3.92997,6.460018 -0.48163,7.962468 1.77924,0.77518 2.27539,0.76856 3.86163,-0.0518 z"
       id="path1389"
       sodipodi:nodetypes="cccccccccccccsscccsssccccccccccccccccssscccccccccccsssccccscccsscsssscccsscssscccccsscssccsssssssssssssssssssssssssssssccsscsssssscccssssssssssssss" />
  </g>
</svg>
