<?xml version="1.0" encoding="UTF-8" standalone="no"?>
<!-- Created with Inkscape (http://www.inkscape.org/) -->

<svg
   width="512"
   height="512"
   viewBox="0 0 135.46666 135.46666"
   version="1.1"
   id="svg1249"
   inkscape:version="1.1.1 (3bf5ae0d25, 2021-09-20)"
   sodipodi:docname="lnu.svg"
   xmlns:inkscape="http://www.inkscape.org/namespaces/inkscape"
   xmlns:sodipodi="http://sodipodi.sourceforge.net/DTD/sodipodi-0.dtd"
   xmlns="http://www.w3.org/2000/svg"
   xmlns:svg="http://www.w3.org/2000/svg">
  <sodipodi:namedview
     id="namedview1251"
     pagecolor="#505050"
     bordercolor="#eeeeee"
     borderopacity="1"
     inkscape:pageshadow="0"
     inkscape:pageopacity="0"
     inkscape:pagecheckerboard="0"
     inkscape:document-units="mm"
     showgrid="false"
     units="px"
     width="512px"
     inkscape:zoom="0.64052329"
     inkscape:cx="396.55076"
     inkscape:cy="435.58135"
     inkscape:window-width="1920"
     inkscape:window-height="1012"
     inkscape:window-x="-8"
     inkscape:window-y="-8"
     inkscape:window-maximized="1"
     inkscape:current-layer="layer1" />
  <defs
     id="defs1246" />
  <g
     inkscape:label="Layer 1"
     inkscape:groupmode="layer"
     id="layer1">
    <path
       style="fill:#000000;stroke-width:0.492248"
       d="m 50.571925,129.8797 c 0.10592,-0.47379 1.61887,-6.84225 3.3621,-14.15213 6.75275,-28.316224 7.88329,-35.325434 7.89992,-48.978684 0.0109,-8.90606 -0.11951,-10.61134 -1.11004,-14.52132 -2.46137,-9.71598 -7.34979,-16.409556 -14.56142,-19.938549 -2.19858,-1.075869 -4.88735,-2.089291 -5.97505,-2.252048 -1.94028,-0.290331 -1.9947,-0.257252 -2.88077,1.751067 -1.76737,4.005851 -6.90865,6.259516 -11.28714,4.947689 -5.49148,-1.645287 -7.86375,-8.559828 -4.59889,-13.404551 4.30658,-6.39053 13.74572,-5.144316 16.17221,2.135154 l 0.70304,2.109108 4.24073,0.834682 c 12.74746,2.509017 20.46518,11.359813 23.71417,27.195768 1.40916,6.86842 1.81268,12.09332 2.24813,29.11005 0.24248,9.47578 0.67997,19.886824 0.9722,23.135664 0.53008,5.89337 2.26211,19.68255 2.73598,21.78198 l 0.24999,1.10756 h -11.03888 c -10.25841,0 -11.02526,-0.0609 -10.84628,-0.86144 z m 25.91973,-34.369024 c -3.38041,-1.68452 -4.79175,-3.94584 -4.74028,-7.59512 0.0706,-5.00984 3.05921,-8.36268 7.80489,-8.75623 3.48262,-0.28881 5.74505,0.53364 7.83667,2.84881 4.15793,4.60233 3.15766,10.98334 -2.14137,13.66032 -2.89246,1.46123 -5.60919,1.4123 -8.75991,-0.15778 z m -33.71248,-0.73778 c -3.30212,-1.74322 -5.31475,-6.16476 -4.58259,-10.06748 0.39676,-2.11491 2.89712,-5.06918 5.05254,-5.96978 4.53148,-1.89337 9.99464,-0.0497 11.97507,4.04138 3.62231,7.48269 -5.08872,15.87933 -12.44502,11.99588 z m 52.79481,-9.37688 c -2.02448,-0.80303 -4.41437,-3.46944 -4.97468,-5.55027 -1.57701,-5.85659 2.65397,-11.6388 8.49481,-11.60931 7.457915,0.0377 11.629875,7.66635 7.566375,13.83557 -2.09298,3.17756 -7.425215,4.7763 -11.086505,3.32401 z m -65.96124,-6.23434 c -3.98001,-0.52219 -6.87491,-2.86167 -7.83249,-6.32973 -1.03804,-3.75949 1.10737,-8.56121 4.55642,-10.19789 2.06926,-0.98193 6.17618,-1.04884 8.36041,-0.13621 4.72699,1.97506 6.55382,8.37097 3.70674,12.97765 -1.53736,2.4875 -5.44354,4.1254 -8.79108,3.68618 z m 18.05753,-5.24999 c -2.45293,-0.87483 -3.71746,-2.04238 -4.82554,-4.45544 -1.15124,-2.50703 -1.14735,-4.87924 0.0122,-7.43241 1.08621,-2.39178 3.01134,-3.8789 6.08587,-4.70121 2.56549,-0.68617 5.45873,-0.0727 7.92405,1.68023 1.70906,1.21518 3.24369,4.41415 3.24369,6.76153 0,2.3475 -1.5347,5.54646 -3.24369,6.76125 -1.49183,1.06042 -4.68484,2.10646 -6.33353,2.07487 -0.54147,-0.0104 -1.82982,-0.32035 -2.86301,-0.68882 z m 29.02855,-0.005 c -3.80038,-1.35503 -6.09115,-5.15401 -5.62132,-9.32234 0.85097,-7.54975 11.71182,-10.14541 16.45125,-3.9317 5.52175,7.23939 -1.97315,16.41191 -10.82993,13.25404 z m 31.864655,-5.15615 c -1.62943,-0.6943 -3.14454,-2.96324 -3.14454,-4.70909 0,-4.50242 6.84597,-6.96497 9.23338,-3.32132 1.3197,2.01412 1.12929,5.24248 -0.39937,6.77114 -1.36894,1.36893 -4.04304,1.9608 -5.68947,1.25927 z m -15.302675,-7.94819 c -5.20374,-2.57582 -5.53176,-11.67511 -0.55391,-15.36574 1.8639,-1.38192 5.79302,-1.6635 8.545295,-0.61239 5.27739,2.01545 7.16083,9.25853 3.58846,13.80006 -2.39978,3.05083 -7.774395,4.06175 -11.579845,2.17807 z m -65.87511,-2.12443 c -2.51615,-1.09629 -3.40759,-4.38381 -1.95196,-7.19867 0.95894,-1.8544 2.12771,-2.45139 4.79922,-2.45139 3.53044,0 5.49941,3.01798 4.31344,6.61151 -1.08104,3.27559 -3.88541,4.46559 -7.1607,3.03855 z m 16.25612,-4.47837 c -0.27074,-0.0897 -1.08433,-0.29316 -1.80799,-0.45213 -1.91151,-0.41992 -4.34953,-2.65727 -5.38884,-4.94532 -3.17111,-6.98117 3.16812,-14.159375 10.71079,-12.128343 2.69929,0.726841 4.53965,2.254777 5.64366,4.685569 2.52744,5.564864 -0.85669,11.770794 -6.9425,12.731374 -0.94758,0.14957 -1.94438,0.19855 -2.21512,0.10885 z m 30.02713,-1.9314 c -6.23232,-2.78184 -7.01267,-11.684083 -1.36351,-15.554946 1.49478,-1.024245 2.36001,-1.222165 5.3428,-1.222165 3.23416,0 3.73192,0.13805 5.4508,1.511744 1.04039,0.83146 2.27892,2.271285 2.75229,3.199612 2.20385,4.322005 -0.18164,10.523555 -4.70764,12.238415 -1.88876,0.71563 -5.68091,0.62803 -7.47474,-0.17266 z m 16.73644,-13.683137 c -2.37012,-1.359044 -4.18411,-4.621106 -4.18411,-7.524207 0,-2.623965 1.79702,-6.11352 3.85098,-7.478056 4.38101,-2.910485 10.757755,-1.296498 13.149255,3.328138 1.14289,2.210122 0.93813,6.884452 -0.38687,8.831281 -1.9019,2.794461 -3.486315,3.639278 -7.153325,3.814165 -2.73286,0.130335 -3.64876,-0.03829 -5.27593,-0.971321 z m -30.57732,-3.092392 c -3.13654,-1.563 -4.61842,-4.001511 -4.61842,-7.599831 0,-4.111563 2.33958,-7.27409 6.22717,-8.41759 4.37795,-1.287732 8.92429,0.565008 10.87845,4.433223 1.33649,2.645541 1.39265,5.007705 0.18177,7.644632 -2.20528,4.802417 -7.58217,6.474426 -12.66897,3.939566 z m 17.62225,-11.370875 c -3.6415,-1.814638 -5.2071,-4.55165 -4.91484,-8.592186 0.36937,-5.106407 2.98181,-7.5075212 8.4191,-7.7380602 6.45943,-0.273876 9.39233,2.6559122 9.10188,9.0922012 -0.18961,4.201534 -1.09823,5.753517 -4.33749,7.408695 -2.8305,1.446317 -5.11858,1.399095 -8.26865,-0.17065 z m -34.81397,-0.830089 c -0.94537,-0.813169 -1.37664,-1.746117 -1.56027,-3.375218 -0.22478,-1.994295 -0.0833,-2.442175 1.23867,-3.921741 1.29316,-1.447301 1.79929,-1.670326 3.79055,-1.670326 3.03791,0 4.67412,1.719539 4.67412,4.912162 0,3.179475 -1.81172,5.178924 -4.69267,5.178924 -1.52281,0 -2.5224,-0.325568 -3.4504,-1.123801 z m 19.127,-9.163533 c -3.07405,-1.924122 -3.60738,-5.5331652 -1.17684,-7.9637102 1.20572,-1.205718 1.83676,-1.438879 3.89423,-1.438879 2.13747,0 2.62033,0.196072 3.72973,1.514512 3.76293,4.4719942 -1.53967,10.9597592 -6.44712,7.8880772 z"
       id="path1265" />
  </g>
</svg>
