<?xml version="1.0" encoding="UTF-8" standalone="no"?>
<!-- Created with Inkscape (http://www.inkscape.org/) -->

<svg
   width="512"
   height="512"
   viewBox="0 0 135.46667 135.46667"
   version="1.1"
   id="svg5"
   inkscape:version="1.1.1 (3bf5ae0d25, 2021-09-20)"
   sodipodi:docname="ru.svg"
   xmlns:inkscape="http://www.inkscape.org/namespaces/inkscape"
   xmlns:sodipodi="http://sodipodi.sourceforge.net/DTD/sodipodi-0.dtd"
   xmlns="http://www.w3.org/2000/svg"
   xmlns:svg="http://www.w3.org/2000/svg">
  <sodipodi:namedview
     id="namedview7"
     pagecolor="#505050"
     bordercolor="#eeeeee"
     borderopacity="1"
     inkscape:pageshadow="0"
     inkscape:pageopacity="0"
     inkscape:pagecheckerboard="0"
     inkscape:document-units="mm"
     showgrid="false"
     units="px"
     width="512px"
     inkscape:zoom="0.70710678"
     inkscape:cx="171.11984"
     inkscape:cy="144.24978"
     inkscape:window-width="1920"
     inkscape:window-height="1012"
     inkscape:window-x="-8"
     inkscape:window-y="-8"
     inkscape:window-maximized="1"
     inkscape:current-layer="layer2" />
  <defs
     id="defs2" />
  <g
     inkscape:groupmode="layer"
     id="layer2"
     inkscape:label="Layer 2">
    <circle
       style="fill:#b3b3b3;stroke-width:0.264583"
       id="path520"
       cx="78.764328"
       cy="-48.455967"
       r="45.088367"
       transform="scale(1,-1)" />
  </g>
  <g
     inkscape:label="Layer 1"
     inkscape:groupmode="layer"
     id="layer1">
    <path
       style="fill:#000000;stroke-width:0.423333"
       d="m 61.479663,130.19566 c -8.09131,-1.92415 -15.339296,-6.16894 -19.862554,-11.63252 -2.614501,-3.15801 -5.750106,-9.20544 -6.677693,-12.8788 -1.034854,-4.09815 -1.549473,-12.599487 -1.413226,-23.346007 l 0.12881,-10.16 h 9.525 9.525 l 0.211666,13.97 0.211667,13.969997 1.188589,2.42045 c 3.645391,7.42348 12.348726,10.9694 20.631036,8.40552 4.930677,-1.52635 8.200343,-4.32571 10.25679,-8.78148 0.899474,-1.94892 0.953478,-2.697538 1.155252,-16.014487 l 0.211666,-13.97 h 9.525 9.525004 L 105.60414,85.725 c -0.0188,14.54583 -0.3089,17.55614 -2.20263,22.86 -2.94438,8.24643 -8.5488,14.38579 -16.829822,18.43626 -8.158976,3.99075 -16.971112,5.10559 -25.092004,3.1744 z M 68.58,121.59865 v -8.36468 l -3.343478,-0.75149 C 59.60913,111.21765 55.546663,108.02297 53.012949,102.87 L 51.868112,100.54167 51.600896,86.995 C 51.453931,79.544333 51.308855,73.400708 51.27851,73.3425 51.24816,73.28429 47.508583,73.236666 42.968333,73.236666 h -8.255 l 0.0014,10.265834 c 0.0018,12.947032 0.529584,18.79536 2.153631,23.8653 2.840581,8.86771 9.851549,16.10179 19.223256,19.83501 2.97699,1.18588 9.153026,2.67519 11.324167,2.73074 l 1.164174,0.0298 z m -57.255834,8.924 c -0.697296,-0.18642 -0.740772,-2.08078 -0.739794,-32.234522 5.5e-4,-17.620057 0.126274,-36.183685 0.27934,-41.252513 l 0.278302,-9.216047 8.504826,0.11438 8.504826,0.114385 v 41.275 41.274997 l -8.043333,0.0612 c -4.423833,0.0337 -8.376708,-0.0279 -8.784167,-0.13688 z M 27.093333,89.323333 V 49.106666 h -7.339347 -7.339347 l -0.280132,18.7325 c -0.362363,24.231376 -0.361735,61.055834 0.0011,61.418614 0.155222,0.15522 3.584222,0.28222 7.62,0.28222 h 7.337767 z m 31.60889,3.527776 C 58.547,92.69589 58.42,87.725546 58.42,81.805907 V 71.042923 l 1.479647,-1.728639 c 2.085691,-2.436656 3.129433,-4.81148 3.44606,-7.840789 C 64.067326,54.569402 60.276875,48.078669 53.278269,44.234118 51.029942,42.999043 50.938273,42.986642 41.91,42.69626 36.904083,42.535251 28.02694,42.387726 22.183015,42.368425 l -10.625318,-0.03509 -0.273325,-4.1275 C 11.134043,35.93571 11.010061,31.83996 11.008857,29.104168 l -0.0022,-4.974166 16.1925,-0.105834 c 27.663225,-0.180805 27.835763,-0.167459 34.006092,2.630302 9.684249,4.391047 16.534583,12.819805 19.531618,24.032011 0.945075,3.535616 1.104176,4.994512 1.097322,10.061854 -0.007,5.2094 -0.146626,6.38639 -1.153291,9.725283 -0.629903,2.089243 -1.72447,4.885301 -2.432376,6.213467 C 75.431218,81.972903 69.73981,87.594766 63.5,91.255401 c -3.078603,1.806088 -4.210829,2.18266 -4.797777,1.595708 z m 3.913916,-2.538704 c 5.719051,-3.32036 12.118141,-9.730859 14.557993,-14.583952 2.420485,-4.814566 3.359506,-8.979666 3.377256,-14.98012 0.01994,-6.734437 -1.031422,-11.099969 -4.230641,-17.566951 -2.058932,-4.161983 -2.90123,-5.363599 -5.815046,-8.2957 -3.757748,-3.781329 -7.791789,-6.39056 -12.591225,-8.144048 l -3.09281,-1.129968 -21.2725,-0.124167 -21.2725,-0.124168 0.03138,6.050834 c 0.01726,3.327959 0.160134,6.908085 0.3175,7.955835 l 0.286121,1.905 19.05994,0.211666 19.05994,0.211667 2.741727,1.351242 c 3.025441,1.491069 7.053991,5.206763 8.740817,8.062002 2.193739,3.713269 2.865103,9.33671 1.6166,13.540867 -0.351616,1.184034 -1.494616,3.314645 -2.54,4.734692 L 59.69,71.969046 v 9.735477 c 0,7.113625 0.132495,9.735477 0.491972,9.735477 0.270587,0 1.365962,-0.50742 2.434167,-1.127595 z"
       id="path140" />
  </g>
</svg>
