<?xml version="1.0" encoding="UTF-8" standalone="no"?>
<svg
   fill="#e5e5e6"
   viewBox="0 0 512 512"
   version="1.1"
   id="svg46"
   sodipodi:docname="sketchfab.svg"
   inkscape:version="1.1.1 (3bf5ae0d25, 2021-09-20)"
   xmlns:inkscape="http://www.inkscape.org/namespaces/inkscape"
   xmlns:sodipodi="http://sodipodi.sourceforge.net/DTD/sodipodi-0.dtd"
   xmlns="http://www.w3.org/2000/svg"
   xmlns:svg="http://www.w3.org/2000/svg">
  <defs
     id="defs50" />
  <sodipodi:namedview
     id="namedview48"
     pagecolor="#505050"
     bordercolor="#eeeeee"
     borderopacity="1"
     inkscape:pageshadow="0"
     inkscape:pageopacity="0"
     inkscape:pagecheckerboard="0"
     showgrid="false"
     inkscape:zoom="1.0965679"
     inkscape:cx="359.30288"
     inkscape:cy="305.49864"
     inkscape:window-width="1920"
     inkscape:window-height="1012"
     inkscape:window-x="-8"
     inkscape:window-y="-8"
     inkscape:window-maximized="1"
     inkscape:current-layer="svg46" />
  <path
     style="fill:#e5e5e6;fill-opacity:1;stroke-width:1.31222"
     d="M 227.05344,478.72033 C 214.53258,477.15391 188.54349,470.56241 176.39329,465.87157 102.39123,437.30159 48.627224,372.09531 34.74081,294.07206 c -2.089593,-11.74082 -2.740812,-20.85887 -2.740812,-38.37543 0,-38.53796 6.344119,-65.19597 23.901983,-100.43618 C 67.796007,131.38807 79.243173,115.45928 97.887944,96.836794 129.86734,64.895625 166.71492,45.068386 211.89413,35.491441 226.73409,32.345709 231.09211,32 255.90738,32 c 24.83731,0 29.16571,0.344053 44.06992,3.502929 92.89388,19.688398 161.0352,90.301361 177.64555,184.089191 2.80633,15.84557 3.21471,52.52404 0.7601,68.27035 -3.49173,22.39967 -12.2694,50.08132 -21.93477,69.17463 -32.86652,64.92556 -96.48534,110.64048 -168.57628,121.13476 -15.03084,2.18804 -45.5153,2.46296 -60.81846,0.54847 z m 9.31688,-205.41721 c -0.45984,-1.20028 -17.25256,-10.48443 -72.92678,-40.31885 -3.96742,-2.12604 -10.85055,-5.86131 -15.29586,-8.3006 -4.4453,-2.43931 -8.43533,-4.43509 -8.8667,-4.43509 -0.43139,0 -0.63059,25.73313 -0.44268,57.18471 l 0.34167,57.18473 48.52714,28.05329 48.52712,28.05326 0.34205,-57.99551 c 0.18813,-31.89753 0.0955,-58.63919 -0.20596,-59.42594 z m 83.92381,89.6519 48.40605,-27.96939 0.34175,-57.47466 0.34175,-57.47466 -7.55523,4.1128 c -4.15537,2.26206 -26.29394,14.241 -49.19677,26.6199 l -41.64153,22.50708 v 58.82418 c 0,32.35328 0.20204,58.82416 0.44896,58.82416 0.24693,0 22.23169,-12.58622 48.85502,-27.96941 z M 311.47567,216.845 c 30.75213,-16.3138 56.38641,-30.11028 56.96507,-30.65888 1.02424,-0.97108 -111.94056,-67.03017 -114.6254,-67.03017 -1.26172,0 -19.28764,10.28146 -87.45782,49.88346 -15.34903,8.91669 -27.44803,16.63294 -26.88665,17.14725 0.56135,0.51429 10.75886,6.13282 22.66114,12.48564 68.58345,36.6063 90.02852,47.79597 91.6357,47.81398 0.98724,0.0101 26.95581,-13.32751 57.70796,-29.64128 z"
     id="path8254" />
</svg>
