<?xml version="1.0" encoding="UTF-8" standalone="no"?>
<svg
   fill="#e5e5e6"
   viewBox="0 0 512 512"
   version="1.1"
   id="svg46"
   sodipodi:docname="sketchfab.svg"
   inkscape:version="1.1.1 (3bf5ae0d25, 2021-09-20)"
   xmlns:inkscape="http://www.inkscape.org/namespaces/inkscape"
   xmlns:sodipodi="http://sodipodi.sourceforge.net/DTD/sodipodi-0.dtd"
   xmlns="http://www.w3.org/2000/svg"
   xmlns:svg="http://www.w3.org/2000/svg">
  <defs
     id="defs50" />
  <sodipodi:namedview
     id="namedview48"
     pagecolor="#505050"
     bordercolor="#eeeeee"
     borderopacity="1"
     inkscape:pageshadow="0"
     inkscape:pageopacity="0"
     inkscape:pagecheckerboard="0"
     showgrid="false"
     inkscape:zoom="1.0965679"
     inkscape:cx="359.30286"
     inkscape:cy="305.49863"
     inkscape:window-width="1920"
     inkscape:window-height="1012"
     inkscape:window-x="-8"
     inkscape:window-y="-8"
     inkscape:window-maximized="1"
     inkscape:current-layer="svg46" />
  <path
     style="fill:#e5e5e6;fill-opacity:1;stroke-width:1.31014"
     d="m 225.08031,476.01919 c -12.50742,-1.56313 -38.46861,-8.1408 -50.60577,-12.8218 C 100.5519,434.68736 46.8456,369.6179 32.97409,291.75837 c -2.08735,-11.71618 -2.73787,-20.8151 -2.73787,-38.29491 0,-38.45709 6.33731,-65.05916 23.87633,-100.22543 11.88126,-23.82229 23.31614,-39.71765 41.9409,-58.301064 31.94507,-31.874146 68.7531,-51.659782 113.88382,-61.216631 14.82404,-3.139131 19.17738,-3.484115 43.96602,-3.484115 24.81065,0 29.1344,0.343331 44.02262,3.495579 92.79417,19.647085 160.86236,90.111881 177.45488,183.702911 2.80332,15.81232 3.21126,52.41383 0.75929,68.1271 -3.48799,22.35267 -12.25623,49.97623 -21.91123,69.02948 -32.83125,64.78932 -96.38179,110.40832 -168.39535,120.88058 -15.01471,2.18345 -45.46645,2.45779 -60.75319,0.54732 z m 9.30688,-204.98618 c -0.45934,-1.19776 -17.23404,-10.46243 -72.84851,-40.23425 -3.96316,-2.12158 -10.8389,-5.84901 -15.27944,-8.28318 -4.44053,-2.43419 -8.42628,-4.42579 -8.85718,-4.42579 -0.43093,0 -0.62992,25.67914 -0.44221,57.06472 l 0.34131,57.06474 48.47505,27.99443 48.47504,27.99439 0.34168,-57.87382 c 0.18793,-31.83059 0.0954,-58.51614 -0.20574,-59.30124 z m 83.83374,89.46378 48.3541,-27.9107 0.34138,-57.35406 0.34138,-57.35406 -7.54712,4.10417 c -4.15091,2.25731 -26.26572,14.21112 -49.14397,26.56404 l -41.59683,22.45986 v 58.70074 c 0,32.2854 0.20182,58.70073 0.44848,58.70073 0.24666,0 22.20782,-12.55981 48.80258,-27.91072 z m -8.809,-145.80343 c 30.71913,-16.27957 56.3259,-30.0471 56.90394,-30.59455 1.02314,-0.96904 -111.82042,-66.88952 -114.50238,-66.88952 -1.26037,0 -19.26694,10.25989 -87.36395,49.77879 -15.33256,8.89798 -27.41857,16.59804 -26.8578,17.11127 0.56075,0.51321 10.74732,6.11995 22.63682,12.45944 68.50984,36.52949 89.9319,47.69568 91.53735,47.71365 0.98618,0.0101 26.92688,-13.29955 57.64602,-29.57908 z"
     id="path8254" />
</svg>
